<svg width="48" height="48" viewBox="0 0 48 48" fill="none" xmlns="http://www.w3.org/2000/svg">
<rect width="48" height="48" rx="8" fill="#F0F5FF"/>
<path d="M32 20H16C15.4477 20 15 20.4477 15 21V23C15 23.5523 15.4477 24 16 24H32C32.5523 24 33 23.5523 33 23V21C33 20.4477 32.5523 20 32 20Z" stroke="#2F54EB" stroke-width="1.5" stroke-linecap="round" stroke-linejoin="round"/>
<path d="M24 20V33" stroke="#2F54EB" stroke-width="1.5" stroke-linecap="round" stroke-linejoin="round"/>
<path d="M31 24V31C31 31.5304 30.7893 32.0391 30.4142 32.4142C30.0391 32.7893 29.5304 33 29 33H19C18.4696 33 17.9609 32.7893 17.5858 32.4142C17.2107 32.0391 17 31.5304 17 31V24" stroke="#2F54EB" stroke-width="1.5" stroke-linecap="round" stroke-linejoin="round"/>
<path d="M19.5 19.9999C18.837 19.9999 18.2011 19.7366 17.7322 19.2677C17.2634 18.7989 17 18.163 17 17.4999C17 16.8369 17.2634 16.201 17.7322 15.7322C18.2011 15.2633 18.837 14.9999 19.5 14.9999C20.4647 14.9831 21.41 15.4512 22.2127 16.3431C23.0154 17.235 23.6383 18.5094 24 19.9999C24.3617 18.5094 24.9846 17.235 25.7873 16.3431C26.59 15.4512 27.5353 14.9831 28.5 14.9999C29.163 14.9999 29.7989 15.2633 30.2678 15.7322C30.7366 16.201 31 16.8369 31 17.4999C31 18.163 30.7366 18.7989 30.2678 19.2677C29.7989 19.7366 29.163 19.9999 28.5 19.9999" stroke="#2F54EB" stroke-width="1.5" stroke-linecap="round" stroke-linejoin="round"/>
</svg>
