<svg width="128" height="128" viewBox="0 0 128 128" fill="none" xmlns="http://www.w3.org/2000/svg">
<rect width="128" height="128" fill="#EDF0F3"/>
<path fill-rule="evenodd" clip-rule="evenodd" d="M63.967 30.6666C45.567 30.6666 30.667 45.6 30.667 64C30.667 82.4 45.567 97.3333 63.967 97.3333C82.4003 97.3333 97.3337 82.4 97.3337 64C97.3337 45.6 82.4003 30.6666 63.967 30.6666ZM64.0003 90.6666C49.267 90.6666 37.3337 78.7333 37.3337 64C37.3337 49.2666 49.267 37.3333 64.0003 37.3333C78.7337 37.3333 90.667 49.2666 90.667 64C90.667 78.7333 78.7337 90.6666 64.0003 90.6666ZM80.667 55.6666C80.667 58.4333 78.4337 60.6666 75.667 60.6666C72.9003 60.6666 70.667 58.4333 70.667 55.6666C70.667 52.9 72.9003 50.6666 75.667 50.6666C78.4337 50.6666 80.667 52.9 80.667 55.6666ZM52.3337 60.6666C55.1003 60.6666 57.3337 58.4333 57.3337 55.6666C57.3337 52.9 55.1003 50.6666 52.3337 50.6666C49.567 50.6666 47.3337 52.9 47.3337 55.6666C47.3337 58.4333 49.567 60.6666 52.3337 60.6666ZM81.034 70.6666C78.3673 77.4666 71.7673 82.3333 64.0006 82.3333C56.234 82.3333 49.634 77.4666 46.9673 70.6666H81.034Z" fill="#AAAFB6"/>
</svg>
