<svg width="48" height="48" viewBox="0 0 48 48" fill="none" xmlns="http://www.w3.org/2000/svg">
<rect width="48" height="48" rx="8" fill="#F0F5FF"/>
<path d="M31 16H17C15.8954 16 15 16.8954 15 18C15 19.1046 15.8954 20 17 20H31C32.1046 20 33 19.1046 33 18C33 16.8954 32.1046 16 31 16Z" stroke="#2F54EB" stroke-width="1.5" stroke-linecap="round" stroke-linejoin="round"/>
<path d="M17 20V30C17 30.5304 17.2107 31.0391 17.5858 31.4142C17.9609 31.7893 18.4696 32 19 32H29C29.5304 32 30.0391 31.7893 30.4142 31.4142C30.7893 31.0391 31 30.5304 31 30V20" stroke="#2F54EB" stroke-width="1.5" stroke-linecap="round" stroke-linejoin="round"/>
<path d="M22 24H26" stroke="#2F54EB" stroke-width="1.5" stroke-linecap="round" stroke-linejoin="round"/>
</svg>
