<svg width="48" height="48" viewBox="0 0 48 48" fill="none" xmlns="http://www.w3.org/2000/svg">
<rect width="48" height="48" rx="8" fill="#F0F5FF"/>
<path d="M29 20V17C29 16.7348 28.8946 16.4804 28.7071 16.2929C28.5196 16.1054 28.2652 16 28 16H18C17.4696 16 16.9609 16.2107 16.5858 16.5858C16.2107 16.9609 16 17.4696 16 18M16 18C16 18.5304 16.2107 19.0391 16.5858 19.4142C16.9609 19.7893 17.4696 20 18 20H30C30.2652 20 30.5196 20.1054 30.7071 20.2929C30.8946 20.4804 31 20.7348 31 21V24M16 18V30C16 30.5304 16.2107 31.0391 16.5858 31.4142C16.9609 31.7893 17.4696 32 18 32H30C30.2652 32 30.5196 31.8946 30.7071 31.7071C30.8946 31.5196 31 31.2652 31 31V28" stroke="#2F54EB" stroke-width="1.5" stroke-linecap="round" stroke-linejoin="round"/>
<path d="M32 24V28H28C27.4696 28 26.9609 27.7893 26.5858 27.4142C26.2107 27.0391 26 26.5304 26 26C26 25.4696 26.2107 24.9609 26.5858 24.5858C26.9609 24.2107 27.4696 24 28 24H32Z" stroke="#2F54EB" stroke-width="1.5" stroke-linecap="round" stroke-linejoin="round"/>
</svg>
