<svg width="1600" height="1200" viewBox="0 0 1600 1200" fill="none" xmlns="http://www.w3.org/2000/svg">
<g clip-path="url(#clip0)">
<path fill-rule="evenodd" clip-rule="evenodd" d="M279.758 513.497C318.558 367.489 384.181 230.219 509.679 152.096C640.448 70.6922 795.636 56.3492 940.059 102.458C1104.66 155.01 1272.26 244.104 1327.57 413.221C1385.46 590.214 1324.7 787.435 1212.79 936.333C1106.77 1077.4 940.443 1139.84 769.559 1155.67C591.467 1172.17 388.402 1167.29 278.274 1022.9C172.074 883.664 233.843 686.282 279.758 513.497Z" fill="#F0F5FF"/>
<path fill-rule="evenodd" clip-rule="evenodd" d="M847.716 726.05L891.398 940.592L869.45 1051.45L776.196 1050.16C776.196 1050.16 729.837 837.548 732.514 830.592C735.191 823.637 787.974 720.593 787.974 720.593L847.716 726.05Z" fill="white"/>
<path fill-rule="evenodd" clip-rule="evenodd" d="M788.266 717.396C787.028 717.283 785.844 717.893 785.214 718.949L784.093 721.124L776.431 736.111L765.518 757.506L754.568 779.046C739.695 808.367 730.657 826.476 729.516 829.44C728.589 831.85 730.115 842.115 734.192 863.863L735.358 870.025C738.755 887.839 743.421 910.972 749.077 938.207L751.155 948.186C755.68 969.852 760.511 992.609 765.358 1015.19L769.354 1033.76L773.058 1050.85C773.376 1052.31 774.659 1053.35 776.152 1053.37L869.406 1054.66C870.956 1054.68 872.3 1053.59 872.601 1052.07L894.549 941.215C894.632 940.798 894.63 940.368 894.546 939.952L850.863 725.41C850.58 724.021 849.42 722.982 848.008 722.853L788.266 717.396ZM735.541 831.67L735.633 831.447C736.941 828.343 744.162 813.829 755.504 791.412L763.055 776.517L773.644 755.707L789.843 723.987L845.044 729.029L888.122 940.6L866.818 1048.2L778.793 1046.99L774.808 1028.58C774.065 1025.13 773.292 1021.54 772.494 1017.83L769.077 1001.89C765.668 985.938 762.292 970.014 759.052 954.56L755.085 935.546C749.749 909.833 745.311 887.841 742.011 870.621L740.841 864.46C739.115 855.287 737.793 847.832 736.907 842.238L736.581 840.128C736.182 837.489 735.904 835.369 735.751 833.796L735.695 833.18C735.662 832.793 735.64 832.453 735.627 832.162L735.612 831.615C735.608 831.546 735.593 831.544 735.541 831.67Z" fill="#061178"/>
<path fill-rule="evenodd" clip-rule="evenodd" d="M436.051 377.861C205.326 364.592 172.457 503.162 181.022 608.56C189.801 716.42 218.067 1062.58 218.067 1062.58C216.675 1064.07 767.416 1064.07 765.81 1062.58C765.81 1062.58 737.545 716.42 728.766 608.56C720.201 503.269 664.634 364.592 436.051 377.861Z" fill="#ADC6FF"/>
<path fill-rule="evenodd" clip-rule="evenodd" d="M431.207 377.358C432.963 377.107 434.59 378.327 434.84 380.082C435.091 381.837 433.87 383.463 432.114 383.714C361.815 393.737 315.252 423.815 289.093 470.307C267.799 508.15 260.761 555.494 265.057 608.19L282.424 820.384L302.315 1064.13C302.459 1065.9 301.143 1067.45 299.375 1067.59C297.607 1067.74 296.057 1066.42 295.913 1064.66L258.654 608.714C254.264 554.848 261.484 506.276 283.493 467.16C310.664 418.87 358.988 387.654 431.207 377.358Z" fill="#061178"/>
<path fill-rule="evenodd" clip-rule="evenodd" d="M829.622 1065.57L788.83 870.612C788.83 870.612 812.17 841.507 810.35 800.417C810.243 797.742 810.029 794.96 809.601 792.178C809.815 791.643 858.851 775.7 861.634 769.814C859.814 736.429 832.513 647.51 784.548 626.858C769.13 619.689 731.872 609.095 724.377 606.527C688.939 594.436 614.314 574.961 549.433 587.802C549.433 587.802 450.398 603.959 428.236 617.121C416.138 624.29 356.288 663.025 344.832 770.242C344.618 771.848 448.364 808.336 448.364 808.336L464.424 1064.5" fill="#061178"/>
<path fill-rule="evenodd" clip-rule="evenodd" d="M662.386 538.58V592.295L682.621 596.147C686.154 601.177 725.447 663.025 638.832 670.515C582.301 675.437 519.99 642.266 486.479 602.996L541.938 587.801L558.64 481.761L662.386 538.58Z" fill="white"/>
<path fill-rule="evenodd" clip-rule="evenodd" d="M555.466 481.261L539.086 585.252L485.628 599.9C483.36 600.521 482.507 603.29 484.034 605.079C520.99 648.386 585.025 678.422 639.11 673.713C678.705 670.289 696.99 655.277 697.741 632.514C698.008 624.444 695.996 615.992 692.403 607.576C690.064 602.096 687.264 597.171 685.249 594.303L685.112 594.122C684.636 593.537 683.967 593.136 683.221 592.994L665.597 589.638V538.579C665.597 537.407 664.957 536.328 663.929 535.764L560.183 478.946C558.232 477.877 555.812 479.066 555.466 481.261ZM561.102 486.768L659.173 540.48V592.295L659.179 592.487C659.265 593.945 660.332 595.172 661.784 595.449L680.705 599.05L680.766 599.145C682.463 601.77 684.637 605.743 686.495 610.095C689.75 617.72 691.553 625.294 691.321 632.302C691.037 640.903 687.707 648.186 680.672 653.962C672.131 660.974 658.316 665.608 638.554 667.317L636.994 667.442C587.511 671.097 529.171 644.589 493.327 605.867L492.287 604.732L542.786 590.897C544.004 590.563 544.914 589.547 545.11 588.3L561.102 486.768Z" fill="#061178"/>
<rect width="26.0147" height="45.8032" transform="matrix(-0.906972 0.421192 -0.421589 -0.906787 541.047 248.768)" fill="#ADC6FF"/>
<path fill-rule="evenodd" clip-rule="evenodd" d="M492.152 226.558C517.46 226.558 537.976 206.054 537.976 180.76C537.976 155.467 517.46 134.963 492.152 134.963C466.844 134.963 446.328 155.467 446.328 180.76C446.328 206.054 466.844 226.558 492.152 226.558Z" fill="#061178"/>
<path fill-rule="evenodd" clip-rule="evenodd" d="M530.695 227.949C569.453 214.145 611.958 207.19 651.572 221.314C772.234 270.322 782.084 356.888 738.08 397.656V397.656C733.155 336.236 721.378 313.23 698.787 299.748C679.73 337.092 601.786 380.856 533.586 383.425V383.425C533.479 383.21 535.727 444.63 541.616 443.988C542.794 447.627 555.963 480.049 555.963 480.049L549.003 545.749L402.111 526.06C392.903 526.06 385.623 517.179 387.55 508.405C399.648 453.726 406.179 274.067 530.695 227.949Z" fill="#061178"/>
<path fill-rule="evenodd" clip-rule="evenodd" d="M555.748 461.751L546.755 463.784C546.755 463.784 494.186 471.381 491.723 422.481C489.903 385.351 526.627 386.635 544.506 389.417" fill="white"/>
<path fill-rule="evenodd" clip-rule="evenodd" d="M509.653 387.957C519.741 384.375 532.068 384.233 545.002 386.245C546.754 386.518 547.954 388.159 547.681 389.911C547.408 391.663 545.766 392.862 544.013 392.589C532.041 390.726 520.674 390.857 511.804 394.007C500.231 398.116 494.179 406.947 494.932 422.32C495.918 441.897 505.157 453.065 520.217 458.113C528.294 460.821 536.912 461.414 544.449 460.798L545.061 460.745L545.856 460.662C545.994 460.646 546.102 460.633 546.181 460.623L555.041 458.62C556.771 458.229 558.491 459.314 558.882 461.043C559.259 462.711 558.264 464.368 556.641 464.835L556.458 464.882L547.464 466.915C547.382 466.934 547.299 466.949 547.215 466.961L546.789 467.018C546.346 467.072 545.735 467.135 544.973 467.197C536.643 467.878 527.207 467.228 518.174 464.2C500.705 458.344 489.641 444.97 488.516 422.638C487.623 404.404 495.434 393.006 509.653 387.957Z" fill="#061178"/>
<path fill-rule="evenodd" clip-rule="evenodd" d="M738.081 397.549V397.549C733.156 336.129 721.7 315.371 699.109 301.888C680.373 338.59 611.316 381.392 535.3 383.211C533.801 391.771 534.979 384.174 534.764 393.483C535.193 403.113 535.942 414.135 536.799 423.337C542.687 458.113 555.856 479.942 555.856 479.942V479.942C574.593 513.862 605.213 539.543 646.112 543.288C717.417 549.708 736.475 449.446 738.081 427.189C738.83 416.168 738.081 397.549 738.081 397.549V397.549Z" fill="white"/>
<path fill-rule="evenodd" clip-rule="evenodd" d="M696.247 300.429C687.094 318.359 665.387 337.759 637.172 352.798C606.351 369.227 570.552 379.156 535.222 380.001C533.691 380.038 532.399 381.15 532.135 382.657L531.443 386.602C531.294 387.518 531.257 387.995 531.383 388.622L531.51 389.164C531.522 389.225 531.509 389.21 531.524 389.403L531.552 389.877C531.586 390.648 531.589 391.798 531.552 393.409L531.555 393.626C531.986 403.331 532.74 414.402 533.6 423.634C533.607 423.714 533.617 423.794 533.631 423.873C536.226 439.201 540.372 453.198 545.441 465.6C547.112 469.689 548.78 473.342 550.382 476.534L550.908 477.57L551.429 478.573C552.092 479.834 552.627 480.793 553.008 481.438L553.081 481.561L553.043 481.493C573.722 518.93 606.21 542.858 645.818 546.484C679.054 549.477 703.935 530.89 721.09 497.457C732.69 474.853 739.94 446.031 741.283 427.42L741.35 426.354C741.623 421.627 741.68 415.509 741.578 408.572L741.532 405.953C741.515 405.088 741.496 404.233 741.475 403.391L741.332 398.59L741.289 397.422L741.281 397.293C736.562 338.433 726.087 314.25 700.755 299.132C699.16 298.18 697.091 298.775 696.247 300.429ZM700.293 306.423L700.837 306.786C721.37 320.646 730.346 343.176 734.739 396.106L734.873 397.746L734.936 399.518C734.952 399.991 734.968 400.519 734.986 401.098L735.053 403.551C735.094 405.214 735.129 406.929 735.155 408.666L735.175 410.217C735.251 416.875 735.167 422.676 734.875 426.971C733.592 444.758 726.55 472.748 715.374 494.527C699.295 525.862 676.608 542.811 646.399 540.091C609.438 536.706 578.989 514.518 559.262 479.457L558.61 478.291L558.293 477.744C558.209 477.597 558.114 477.428 558.008 477.237C557.545 476.404 557.022 475.423 556.449 474.298C554.822 471.104 553.109 467.384 551.388 463.172L550.931 462.044C546.392 450.719 542.648 438.025 540.205 424.189L539.985 422.926L539.855 421.502C539.111 413.215 538.457 403.615 538.046 394.953L537.977 393.439L538 392.188C538.03 390.015 537.977 388.949 537.826 388.059L537.766 387.739L538.008 386.339L539.013 386.302C574.186 384.862 609.57 374.787 640.195 358.463C667.718 343.792 689.397 325.012 700.063 306.822L700.293 306.423Z" fill="#061178"/>
<path fill-rule="evenodd" clip-rule="evenodd" d="M683.465 368.812C685.151 368.521 686.757 369.6 687.14 371.244L687.177 371.429L701.203 452.537C701.531 454.436 700.126 456.178 698.229 456.288L698.038 456.294H677.481C675.708 456.294 674.27 454.857 674.27 453.084C674.27 451.374 675.607 449.977 677.293 449.879L677.481 449.874H694.222L680.847 372.522C680.556 370.837 681.636 369.233 683.28 368.85L683.465 368.812Z" fill="#061178"/>
<path fill-rule="evenodd" clip-rule="evenodd" d="M627.928 366.079C635.897 359.836 644.777 357.979 653.432 363.615C654.918 364.582 655.338 366.571 654.37 368.057C653.402 369.542 651.412 369.962 649.925 368.994C643.996 365.133 637.929 366.402 631.892 371.132C630.608 372.137 629.444 373.22 628.427 374.3C628.145 374.599 627.892 374.88 627.67 375.136L627.238 375.653C626.152 377.055 624.135 377.311 622.732 376.226C621.329 375.14 621.073 373.124 622.159 371.722L622.496 371.304C622.806 370.932 623.226 370.455 623.749 369.899C624.976 368.597 626.374 367.297 627.928 366.079Z" fill="#061178"/>
<path fill-rule="evenodd" clip-rule="evenodd" d="M641.412 475.841C643.087 475.257 644.919 476.14 645.503 477.814C647.209 482.7 650.603 485.396 655.444 486.501C658.693 487.243 662.264 487.189 665.639 486.64L666.266 486.531C666.465 486.495 666.655 486.457 666.834 486.42L667.34 486.308L667.547 486.258C669.261 485.798 671.022 486.814 671.482 488.526C671.942 490.238 670.926 491.999 669.213 492.458L668.895 492.539C668.368 492.667 667.614 492.824 666.671 492.977C662.547 493.648 658.189 493.714 654.013 492.761C647.138 491.191 641.924 487.048 639.438 479.929C638.854 478.255 639.737 476.425 641.412 475.841Z" fill="#061178"/>
<path fill-rule="evenodd" clip-rule="evenodd" d="M711.584 366.146C716.392 364.24 721.324 363.344 726.078 364.068C731.137 364.839 735.522 367.425 738.859 372.015C739.901 373.449 739.583 375.457 738.148 376.499C736.713 377.541 734.704 377.223 733.662 375.789C731.353 372.613 728.503 370.932 725.11 370.415C721.657 369.889 717.794 370.591 713.952 372.114C712.902 372.531 711.938 372.976 711.087 373.419L710.599 373.679C710.368 373.806 710.202 373.902 710.109 373.959C708.6 374.89 706.621 374.421 705.69 372.912C704.758 371.403 705.227 369.425 706.737 368.494C707.736 367.879 709.409 367.008 711.584 366.146Z" fill="#061178"/>
<path fill-rule="evenodd" clip-rule="evenodd" d="M655.607 413.629C655.81 407.782 652.908 402.936 649.126 402.805C645.344 402.674 642.114 407.308 641.911 413.155C641.709 419.002 644.611 423.848 648.393 423.979C652.175 424.11 655.405 419.476 655.607 413.629Z" fill="#061178"/>
<path fill-rule="evenodd" clip-rule="evenodd" d="M728.061 415.637C728.263 409.789 725.361 404.944 721.579 404.813C717.797 404.682 714.567 409.316 714.364 415.163C714.162 421.01 717.064 425.856 720.846 425.987C724.628 426.118 727.858 421.484 728.061 415.637Z" fill="#061178"/>
<path fill-rule="evenodd" clip-rule="evenodd" d="M583.947 392.494C582.937 425.587 602.727 453.336 628.657 454.125C654.588 454.915 676.034 428.422 677.045 395.329C678.055 362.236 658.265 334.487 632.335 333.698C606.405 332.909 584.958 359.401 583.947 392.494ZM590.367 392.691C591.279 362.818 610.197 339.448 632.137 340.116C654.078 340.784 671.536 365.262 670.624 395.135C669.712 425.008 650.794 448.377 628.853 447.709C606.913 447.041 589.455 422.564 590.367 392.691Z" fill="#ADC6FF"/>
<path fill-rule="evenodd" clip-rule="evenodd" d="M698.875 400.018C697.864 433.111 717.655 460.86 743.585 461.649C769.515 462.438 790.962 435.946 791.973 402.853C792.983 369.76 773.193 342.011 747.263 341.222C721.332 340.433 699.885 366.925 698.875 400.018ZM705.295 400.215C706.207 370.342 725.125 346.972 747.065 347.64C769.005 348.308 786.463 372.786 785.551 402.659C784.64 432.532 765.721 455.901 743.781 455.233C721.841 454.565 704.383 430.088 705.295 400.215Z" fill="#ADC6FF"/>
<path fill-rule="evenodd" clip-rule="evenodd" d="M700.928 388.561C702.702 388.561 704.14 389.998 704.14 391.771C704.14 393.481 702.803 394.878 701.117 394.976L700.928 394.981H673.733C671.96 394.981 670.521 393.544 670.521 391.771C670.521 390.062 671.859 388.664 673.545 388.566L673.733 388.561H700.928Z" fill="#ADC6FF"/>
<path fill-rule="evenodd" clip-rule="evenodd" d="M587.42 379.377C589.184 379.189 590.766 380.466 590.954 382.228C591.135 383.928 589.954 385.46 588.288 385.735L588.101 385.761L529.857 391.967C528.094 392.155 526.511 390.878 526.323 389.115C526.142 387.415 527.323 385.884 528.989 385.608L529.176 385.583L587.42 379.377Z" fill="#ADC6FF"/>
<path fill-rule="evenodd" clip-rule="evenodd" d="M715.383 911.059C715.383 911.059 761.207 911.808 791.399 928.928C809.386 939.093 832.833 953.218 834.011 959.317C836.259 970.874 807.887 959.424 803.283 957.926" fill="white"/>
<path fill-rule="evenodd" clip-rule="evenodd" d="M715.437 907.849L716.64 907.883L717.948 907.934C718.412 907.954 718.901 907.978 719.416 908.005L719.94 908.033C723.476 908.227 727.412 908.537 731.648 908.989C743.762 910.279 755.882 912.445 767.226 915.699C776.886 918.471 785.554 921.922 792.982 926.134L795.43 927.522C821.456 942.33 835.918 952.244 837.165 958.705C838.15 963.766 835.196 966.964 830.209 967.532C826.982 967.899 822.764 967.294 817.589 965.948C815.927 965.515 814.196 965.012 812.386 964.443L810.888 963.962C808.949 963.323 806.021 962.301 804.132 961.634L802.29 960.979C800.604 960.43 799.682 958.618 800.231 956.932C800.76 955.307 802.465 954.392 804.098 954.821L804.303 954.883C804.736 955.039 810.763 957.18 813.443 958.042C815.476 958.696 817.396 959.263 819.208 959.735C823.509 960.854 826.975 961.37 829.227 961.178L829.826 961.113C831.038 960.966 831.042 960.87 830.859 959.926C830.162 956.318 813.64 945.185 789.816 931.72C782.865 927.779 774.657 924.511 765.453 921.87C754.504 918.729 742.739 916.627 730.968 915.373C727.188 914.97 723.657 914.683 720.453 914.493L719.587 914.443C718.561 914.387 717.636 914.344 716.818 914.314L715.332 914.268C713.558 914.239 712.144 912.779 712.173 911.006C712.202 909.234 713.664 907.82 715.437 907.849Z" fill="#061178"/>
<path fill-rule="evenodd" clip-rule="evenodd" d="M752.535 833.053L738.402 838.831L805.425 1000.94L816.453 1012.6C817.309 1013.57 818.915 1012.93 819.022 1011.64L819.558 995.163L752.535 833.053Z" fill="#ADC6FF"/>
<path fill-rule="evenodd" clip-rule="evenodd" d="M829.086 980.825C827.908 975.582 783.583 930.533 767.309 922.615C756.817 917.586 732.941 907.207 711.314 907.207C710.993 907.207 710.779 907.1 710.458 907.1V907.1C631.658 899.716 477.699 879.172 477.699 879.172L489.048 778.481C489.048 778.481 351.148 736.964 351.255 737.178C340.656 814.863 342.797 901.214 352.112 932.245C357.679 951.078 378.45 967.557 397.721 971.088C558.426 1000.51 731.657 981.36 731.657 981.36C732.406 981.467 768.701 992.274 768.701 992.274C790.971 1002.23 790.114 991.739 783.262 983.5C784.333 984.57 785.296 985.533 786.153 986.71C793.861 993.772 805.96 990.99 807.887 988.315C809.814 985.64 801.249 977.936 790.007 965.738L791.399 966.701C810.028 988.315 832.191 994.628 829.086 980.825Z" fill="white"/>
<path fill-rule="evenodd" clip-rule="evenodd" d="M350.884 733.988L350.664 734.011C350.363 734.052 350.193 734.147 349.232 734.685L349.055 734.839L348.7 735.234L348.38 735.748L348.152 736.352L348.088 736.745L348.074 736.744C337.984 810.691 338.93 899.501 349.036 933.168C354.794 952.644 376.084 970.386 397.143 974.245C407.839 976.204 418.76 977.979 429.891 979.576C477.955 986.473 528.985 989.949 581.396 990.589C620.565 991.068 658.007 989.947 692.233 987.773L697.065 987.458C706.35 986.835 714.722 986.175 722.08 985.515L726.033 985.15C727.057 985.053 728.018 984.96 728.916 984.87L731.457 984.61L749.411 989.895L767.585 995.291L768.383 995.642C779.342 1000.39 786.406 1000.95 789.521 996.569L789.669 996.351C790.292 995.399 790.64 994.338 790.744 993.201L790.75 993.114L790.85 993.151C793.513 994.078 796.381 994.474 799.3 994.372C804.177 994.203 808.739 992.628 810.494 990.191L810.636 989.984C811.132 989.224 811.371 988.429 811.397 987.604L811.397 987.458L811.821 987.681C813.725 988.67 815.579 989.476 817.355 990.082C827.237 993.457 834.379 989.718 832.22 980.121C830.513 972.521 783.817 927.077 768.716 919.729L767.759 919.273C748.938 910.35 729.766 904.204 712.207 904.002L711.474 903.997L711.517 904.005C711.359 903.974 711.273 903.958 711.137 903.939L710.922 903.915L710.698 903.898L704.222 903.279C681.362 901.048 651.799 897.741 617.117 893.587L606.175 892.269C603.407 891.934 600.616 891.594 597.802 891.251C574.667 888.426 550.846 885.431 527.322 882.409L504.663 879.478L481.244 876.404L492.24 778.841C492.407 777.364 491.538 775.976 490.158 775.469L488.434 774.944L386.113 744.194L354.389 734.73L352.372 734.148L351.95 734.041L351.779 734.01L351.506 733.973C351.406 733.965 351.294 733.97 350.884 733.988ZM825.957 981.557L825.952 981.528C826.415 983.585 826.174 984.356 825.637 984.637C824.66 985.149 822.442 985.035 819.432 984.007C811.889 981.431 802.198 974.311 793.833 964.606C793.655 964.399 793.452 964.216 793.228 964.061L791.836 963.098C788.684 960.917 785.048 965.094 787.645 967.912L788.773 969.121C792.014 972.577 799.781 980.779 801.466 982.709L801.747 983.032C803.029 984.517 803.923 985.68 804.462 986.559L804.601 986.794L804.472 986.855C804.245 986.956 803.991 987.056 803.714 987.152C802.409 987.603 800.779 987.897 799.077 987.956L798.654 987.966C794.853 988.014 791.3 986.913 788.618 984.605L788.537 984.532L788.472 984.446C787.734 983.475 787.018 982.714 785.534 981.23C782.642 978.34 778.178 982.408 780.793 985.552C782.301 987.366 783.429 989.24 783.978 990.807C784.397 992.003 784.392 992.699 784.285 992.848L784.264 992.863C784.231 992.882 784.152 992.918 783.984 992.968C783.48 993.118 782.698 993.168 781.648 993.065C778.943 992.801 775.043 991.592 770.013 989.344L769.818 989.264L768.042 988.729L738.491 979.977C734.369 978.771 732.455 978.231 732.112 978.182C731.911 978.154 731.708 978.144 731.506 978.154L731.07 978.195L728.804 978.429L725.424 978.759C724.207 978.874 722.9 978.995 721.506 979.12L718.459 979.388C711.218 980.014 703.066 980.635 694.092 981.22C659.409 983.48 621.338 984.657 581.475 984.17C529.326 983.533 478.569 980.076 430.804 973.221C419.753 971.636 408.914 969.874 398.301 967.93C379.539 964.492 360.24 948.409 355.193 931.336L354.902 930.341C345.574 897.626 344.599 813.49 353.853 742.016L353.948 741.293L380.358 749.172L430.229 764.142L485.556 780.782L474.508 878.812C474.319 880.487 475.456 882.01 477.091 882.324L478.822 882.56L501.125 885.492C505.148 886.017 509.346 886.562 513.701 887.126C541.35 890.705 569.665 894.283 597.023 897.624L610.91 899.308L622.149 900.654C657.221 904.828 686.802 908.094 709.241 910.209L710.278 910.304L710.257 910.301C710.655 910.38 710.909 910.417 711.315 910.417C728.2 910.417 747.295 916.582 765.921 925.51C772.773 928.844 786.284 940.144 801.083 954.503L801.618 955.023C807.847 961.085 813.772 967.186 818.319 972.204L819.619 973.651C821.526 975.795 823.087 977.645 824.223 979.11L824.62 979.63C824.996 980.129 825.307 980.566 825.55 980.935L825.665 981.113C825.858 981.417 825.96 981.614 825.957 981.557Z" fill="#061178"/>
<path fill-rule="evenodd" clip-rule="evenodd" d="M748.144 962.222C754.494 962.857 773.905 970.93 782.137 977.956C782.5 978.266 782.777 978.639 782.966 979.046L783.018 979.17L783.06 979.202C785.133 980.893 786.911 982.636 788.364 984.435L788.693 984.851C789.78 986.252 789.524 988.269 788.122 989.355C786.72 990.441 784.702 990.185 783.615 988.784C780.431 984.677 774.715 980.596 767.227 976.763C762.786 974.489 758.007 972.444 753.226 970.667C751.551 970.044 749.998 969.5 748.606 969.039L747.326 968.623L746.897 968.49C743.175 967.367 744.277 961.836 748.144 962.222Z" fill="#061178"/>
<path fill-rule="evenodd" clip-rule="evenodd" d="M756.794 948.215C757.194 946.487 758.919 945.411 760.647 945.81L761.086 945.918C761.378 945.992 761.747 946.09 762.187 946.214L762.46 946.291C763.841 946.685 765.374 947.174 767.022 947.764C771.728 949.449 776.435 951.613 780.849 954.315C785.18 956.966 789.001 960.003 792.166 963.465C793.362 964.774 793.271 966.804 791.961 968C790.652 969.196 788.62 969.105 787.424 967.796C784.694 964.811 781.34 962.144 777.494 959.79C773.488 957.338 769.172 955.354 764.855 953.808C763.534 953.335 762.297 952.934 761.171 952.602L760.695 952.464C760.35 952.365 760.037 952.28 759.759 952.207L759.2 952.065C757.472 951.666 756.395 949.942 756.794 948.215Z" fill="#061178"/>
<path fill-rule="evenodd" clip-rule="evenodd" d="M949.962 1025.98H580.91C574.379 1025.98 569.133 1020.74 569.133 1014.21V1005.65C569.133 999.123 574.379 993.879 580.91 993.879H949.962C956.493 993.879 961.74 999.123 961.74 1005.65V1014.21C961.74 1020.74 956.386 1025.98 949.962 1025.98Z" fill="#ADC6FF"/>
<path fill-rule="evenodd" clip-rule="evenodd" d="M1422.44 682.286H936.471C930.048 682.286 924.587 687.101 923.088 693.949L852.747 1020.63H549.753C549.753 1020.63 541.402 1063.75 590.117 1063.75C638.831 1063.75 960.24 1063.75 960.24 1063.75L960.026 1063.22H1346.85C1353.27 1063.22 1358.74 1058.4 1360.23 1051.55L1435.71 700.797C1437.86 691.381 1431.33 682.286 1422.44 682.286Z" fill="#061178"/>
<path fill-rule="evenodd" clip-rule="evenodd" d="M1174.48 867.187C1174.48 860.018 1179.83 853.17 1186.47 851.993C1193.11 850.816 1198.57 855.631 1198.57 862.8C1198.57 866.866 1196.85 870.719 1194.18 873.608C1196.32 874.357 1198.46 875.213 1200.28 876.497C1212.7 884.629 1213.02 901.75 1200.92 914.59C1188.82 927.43 1168.91 931.283 1156.49 923.15C1144.07 915.018 1143.75 897.897 1155.85 885.057C1161.41 879.065 1168.7 875.106 1176.08 873.287C1175.12 871.575 1174.48 869.542 1174.48 867.187Z" fill="white"/>
<path fill-rule="evenodd" clip-rule="evenodd" d="M1165.27 833.803C1165.27 833.803 1184.43 829.202 1185.61 845.68C1185.72 845.787 1170.41 851.886 1165.27 833.803Z" fill="white"/>
<path fill-rule="evenodd" clip-rule="evenodd" d="M1188.82 859.376C1188.5 859.376 1188.18 859.376 1187.86 859.269C1186.15 858.734 1185.18 857.022 1185.72 855.31C1186.25 853.598 1190.96 838.189 1195.35 832.946C1196.53 831.555 1198.57 831.448 1199.85 832.625C1201.24 833.802 1201.35 835.835 1200.17 837.119C1197.17 840.757 1193.11 852.849 1191.82 857.129C1191.5 858.413 1190.21 859.376 1188.82 859.376Z" fill="white"/>
<path fill-rule="evenodd" clip-rule="evenodd" d="M682.408 1015.71H667.74C663.136 1015.71 659.496 1012.07 659.496 1007.47V1007.47C659.496 1002.87 663.136 999.229 667.74 999.229H682.408C687.012 999.229 690.652 1002.87 690.652 1007.47V1007.47C690.652 1012.07 686.905 1015.71 682.408 1015.71Z" fill="#85A5FF"/>
<path fill-rule="evenodd" clip-rule="evenodd" d="M682.408 1055.19H667.74C663.136 1055.19 659.496 1051.55 659.496 1046.95V1046.95C659.496 1042.35 663.136 1038.71 667.74 1038.71H682.408C687.012 1038.71 690.652 1042.35 690.652 1046.95V1046.95C690.652 1051.55 686.905 1055.19 682.408 1055.19Z" fill="#ADC6FF"/>
<path fill-rule="evenodd" clip-rule="evenodd" d="M653.792 1004.74C659.097 1003.71 664.654 1003.59 669.864 1004.02L670.684 1004.1C671.882 1004.21 672.77 1004.32 673.279 1004.41C675.031 1004.69 676.223 1006.33 675.943 1008.08C675.672 1009.77 674.13 1010.94 672.45 1010.77L671.724 1010.67C671.248 1010.61 670.696 1010.55 670.077 1010.49C665.194 1010.02 659.907 1010.09 655.018 1011.04C645.262 1012.94 639.662 1017.76 639.274 1026.64L639.26 1027.05L639.259 1027.61C639.494 1036.84 645.115 1041.78 655.018 1043.7C659.907 1044.65 665.194 1044.72 670.077 1044.26L670.787 1044.18C671.012 1044.16 671.227 1044.13 671.429 1044.11L672.066 1044.03C672.157 1044.01 672.223 1044 672.263 1044C674.015 1043.72 675.662 1044.91 675.943 1046.66C676.223 1048.41 675.031 1050.06 673.279 1050.34L672.646 1050.43C672.206 1050.49 671.645 1050.55 670.977 1050.62L670.684 1050.65C665.24 1051.16 659.376 1051.09 653.792 1050C641.372 1047.59 633.346 1040.64 632.85 1028.13L632.836 1027.69L632.837 1026.97C633.16 1014.27 641.227 1007.18 653.792 1004.74Z" fill="#061178"/>
<path fill-rule="evenodd" clip-rule="evenodd" d="M980.368 682.286C982.142 682.286 983.58 683.723 983.58 685.496C983.58 687.205 982.243 688.603 980.557 688.7L980.368 688.706C975.629 688.706 971.482 692.252 970.198 697.52L970.124 697.839L895.395 1042.7C893.578 1051.21 899.66 1064 905.44 1064.28L905.637 1064.29C907.411 1064.29 908.849 1065.73 908.849 1067.5C908.849 1069.27 907.411 1070.71 905.637 1070.71C894.946 1070.71 886.699 1053.78 889.041 1041.72L889.115 1041.35L963.847 696.473C965.663 688.177 972.4 682.286 980.368 682.286Z" fill="white"/>
<rect width="85.4364" height="83.8897" transform="matrix(0.997816 0.0660526 -0.0661282 0.997811 1038.57 397.468)" fill="white"/>
<path fill-rule="evenodd" clip-rule="evenodd" d="M1124.04 399.907L1038.79 394.267C1037.02 394.15 1035.49 395.489 1035.37 397.258L1029.82 480.967C1029.7 482.736 1031.04 484.265 1032.81 484.382L1118.06 490.023C1119.83 490.14 1121.36 488.801 1121.48 487.032L1127.03 403.322C1127.14 401.553 1125.81 400.024 1124.04 399.907ZM1120.41 406.101L1115.28 483.404L1036.44 478.188L1041.57 400.885L1120.41 406.101Z" fill="#061178"/>
<path fill-rule="evenodd" clip-rule="evenodd" d="M1109.68 446.038L1089.81 444.725C1088.04 444.608 1086.51 445.947 1086.39 447.716L1085.08 467.575C1084.96 469.344 1086.3 470.873 1088.07 470.99L1107.94 472.304C1109.71 472.421 1111.24 471.082 1111.36 469.313L1112.67 449.453C1112.79 447.684 1111.45 446.155 1109.68 446.038ZM1106.05 452.232L1105.16 465.686L1091.7 464.795L1092.59 451.342L1106.05 452.232Z" fill="#061178"/>
<path fill-rule="evenodd" clip-rule="evenodd" d="M1107.37 446.927C1108.7 445.757 1110.73 445.889 1111.9 447.221C1113.03 448.502 1112.95 450.426 1111.76 451.612L1111.61 451.751L1090.52 470.263C1089.18 471.433 1087.15 471.301 1085.98 469.969C1084.86 468.688 1084.94 466.763 1086.13 465.577L1086.28 465.439L1107.37 446.927Z" fill="#061178"/>
<path fill-rule="evenodd" clip-rule="evenodd" d="M1111.74 412.792L1048.82 408.63C1047.05 408.513 1045.52 409.852 1045.4 411.621L1044.14 430.627C1044.02 432.396 1045.36 433.926 1047.13 434.043L1110.05 438.204C1111.82 438.322 1113.35 436.982 1113.47 435.213L1114.73 416.207C1114.85 414.438 1113.51 412.909 1111.74 412.792ZM1108.11 418.987L1107.27 431.587L1050.76 427.848L1051.6 415.248L1108.11 418.987Z" fill="#061178"/>
<path fill-rule="evenodd" clip-rule="evenodd" d="M1045.16 462.393L1045.35 462.4L1077.36 464.433C1079.13 464.545 1080.47 466.071 1080.36 467.84C1080.25 469.546 1078.83 470.856 1077.14 470.847L1076.95 470.84L1044.94 468.807C1043.17 468.695 1041.82 467.169 1041.94 465.4C1042.05 463.694 1043.47 462.384 1045.16 462.393Z" fill="#061178"/>
<path fill-rule="evenodd" clip-rule="evenodd" d="M1046 452.449L1078.01 454.589C1079.78 454.708 1081.12 456.238 1081 458.006C1080.89 459.712 1079.46 461.017 1077.77 461.002L1077.58 460.995L1045.57 458.855C1043.8 458.737 1042.46 457.207 1042.58 455.438C1042.69 453.732 1044.12 452.427 1045.81 452.442L1046 452.449Z" fill="#061178"/>
<path fill-rule="evenodd" clip-rule="evenodd" d="M1046.64 442.498L1078.65 444.638C1080.42 444.756 1081.76 446.286 1081.64 448.055C1081.53 449.761 1080.1 451.066 1078.41 451.051L1078.23 451.044L1046.21 448.904C1044.44 448.786 1043.1 447.256 1043.22 445.487C1043.34 443.781 1044.76 442.476 1046.45 442.491L1046.64 442.498Z" fill="#061178"/>
<path fill-rule="evenodd" clip-rule="evenodd" d="M1110.91 412.826C1112.64 412.428 1114.36 413.507 1114.76 415.234C1115.14 416.901 1114.15 418.562 1112.53 419.035L1112.35 419.082L1048.11 433.849C1046.38 434.246 1044.66 433.168 1044.26 431.44C1043.88 429.774 1044.87 428.112 1046.49 427.64L1046.67 427.592L1110.91 412.826Z" fill="#061178"/>
<path fill-rule="evenodd" clip-rule="evenodd" d="M1143.16 307.636L1142.54 309.38C1139.07 320.037 1144.83 331.469 1155.39 334.902L1227.65 358.653C1238.22 362.09 1249.55 356.37 1253.11 345.823L1253.74 344.046C1257.21 333.39 1251.45 321.957 1240.89 318.524L1168.62 294.77C1158.03 291.327 1146.59 297.083 1143.16 307.636ZM1166.63 300.875L1238.89 324.627C1246.07 326.962 1250 334.763 1247.65 341.985L1247.04 343.728C1244.58 350.991 1236.85 354.895 1229.65 352.552L1157.39 328.8C1150.2 326.465 1146.27 318.663 1148.62 311.442L1149.24 309.698C1151.6 302.453 1159.41 298.526 1166.63 300.875Z" fill="#061178"/>
<path fill-rule="evenodd" clip-rule="evenodd" d="M1231.86 364.699C1247.18 364.699 1259.59 352.291 1259.59 336.985C1259.59 321.679 1247.18 309.271 1231.86 309.271C1216.55 309.271 1204.13 321.679 1204.13 336.985C1204.13 352.291 1216.55 364.699 1231.86 364.699Z" fill="#1D39C4"/>
<rect width="169.511" height="169.58" transform="matrix(0.38068 0.924707 -0.92486 0.380307 1316.77 412.435)" fill="#ADC6FF"/>
<path fill-rule="evenodd" clip-rule="evenodd" d="M1282.64 634.396C1283.8 633.051 1285.83 632.898 1287.17 634.054C1288.46 635.165 1288.65 637.082 1287.64 638.423L1287.51 638.581L1282.27 644.68C1281.15 645.973 1279.24 646.164 1277.89 645.15L1277.74 645.022L1271.63 639.779C1270.29 638.623 1270.14 636.596 1271.29 635.252C1272.4 633.959 1274.32 633.768 1275.66 634.783L1275.82 634.91L1279.49 638.061L1282.64 634.396Z" fill="#061178"/>
<path fill-rule="evenodd" clip-rule="evenodd" d="M1262.86 623.78L1249.91 612.677C1248.57 611.523 1246.54 611.678 1245.38 613.023C1244.23 614.369 1244.38 616.396 1245.73 617.55L1258.68 628.653C1260.03 629.807 1262.05 629.652 1263.21 628.306C1264.36 626.96 1264.21 624.934 1262.86 623.78ZM1236.96 601.574L1224.01 590.471C1222.66 589.317 1220.64 589.472 1219.48 590.818C1218.33 592.164 1218.48 594.19 1219.83 595.344L1232.78 606.447C1234.13 607.601 1236.15 607.446 1237.31 606.101C1238.46 604.755 1238.31 602.728 1236.96 601.574ZM1211.06 579.369L1198.11 568.266C1196.76 567.112 1194.73 567.267 1193.58 568.613C1192.42 569.958 1192.58 571.985 1193.93 573.139L1206.88 584.242C1208.22 585.396 1210.25 585.241 1211.41 583.895C1212.56 582.55 1212.41 580.523 1211.06 579.369ZM1185.16 557.163L1172.21 546.061C1170.86 544.906 1168.83 545.062 1167.68 546.407C1166.52 547.753 1166.68 549.78 1168.02 550.934L1180.97 562.036C1182.32 563.191 1184.35 563.036 1185.5 561.69C1186.66 560.344 1186.5 558.318 1185.16 557.163Z" fill="#061178"/>
<path fill-rule="evenodd" clip-rule="evenodd" d="M1153.86 524.054C1155.03 522.72 1157.06 522.584 1158.39 523.752C1159.68 524.874 1159.85 526.793 1158.82 528.125L1158.69 528.282L1155.58 531.837L1159.23 534.969C1160.52 536.08 1160.71 537.997 1159.7 539.338L1159.57 539.496C1158.46 540.788 1156.54 540.98 1155.2 539.965L1155.04 539.837L1148.94 534.594C1147.64 533.476 1147.45 531.544 1148.48 530.204L1148.61 530.046L1153.86 524.054Z" fill="#061178"/>
<path fill-rule="evenodd" clip-rule="evenodd" d="M1169.85 515.309L1180.95 502.359C1182.11 501.013 1181.95 498.987 1180.6 497.833C1179.26 496.68 1177.23 496.836 1176.07 498.182L1164.97 511.132C1163.82 512.478 1163.97 514.504 1165.32 515.658C1166.67 516.812 1168.7 516.655 1169.85 515.309ZM1192.05 489.41L1203.16 476.46C1204.31 475.114 1204.15 473.088 1202.81 471.934C1201.46 470.781 1199.43 470.937 1198.28 472.283L1187.18 485.233C1186.02 486.579 1186.18 488.605 1187.52 489.759C1188.87 490.913 1190.9 490.756 1192.05 489.41ZM1214.26 463.511L1225.36 450.561C1226.51 449.215 1226.36 447.188 1225.01 446.035C1223.66 444.881 1221.64 445.037 1220.48 446.384L1209.38 459.333C1208.23 460.68 1208.38 462.706 1209.73 463.86C1211.08 465.013 1213.1 464.857 1214.26 463.511ZM1236.46 437.611L1247.56 424.662C1248.72 423.315 1248.56 421.289 1247.21 420.135C1245.87 418.982 1243.84 419.138 1242.69 420.484L1231.58 433.434C1230.43 434.78 1230.59 436.807 1231.93 437.96C1233.28 439.114 1235.31 438.958 1236.46 437.611Z" fill="#061178"/>
<path fill-rule="evenodd" clip-rule="evenodd" d="M1259.09 401.449C1260.2 400.156 1262.11 399.965 1263.46 400.98L1263.61 401.107L1269.72 406.351C1271.06 407.506 1271.22 409.533 1270.06 410.877C1268.95 412.17 1267.03 412.361 1265.69 411.347L1265.53 411.219L1261.86 408.067L1258.71 411.734C1257.6 413.026 1255.68 413.217 1254.34 412.203L1254.18 412.075C1252.89 410.964 1252.7 409.047 1253.71 407.706L1253.84 407.548L1259.09 401.449Z" fill="#061178"/>
<path fill-rule="evenodd" clip-rule="evenodd" d="M1278.49 422.242L1291.43 433.352C1292.78 434.508 1294.8 434.354 1295.96 433.009C1297.12 431.664 1296.96 429.637 1295.62 428.482L1282.67 417.371C1281.33 416.216 1279.3 416.37 1278.14 417.715C1276.99 419.06 1277.14 421.086 1278.49 422.242ZM1304.37 444.463L1317.32 455.574C1318.66 456.729 1320.69 456.575 1321.85 455.23C1323 453.886 1322.85 451.859 1321.5 450.704L1308.56 439.593C1307.21 438.438 1305.19 438.592 1304.03 439.937C1302.87 441.281 1303.03 443.308 1304.37 444.463ZM1330.26 466.685L1343.21 477.796C1344.55 478.951 1346.58 478.797 1347.74 477.452C1348.89 476.107 1348.74 474.081 1347.39 472.925L1334.45 461.815C1333.1 460.659 1331.07 460.813 1329.92 462.158C1328.76 463.503 1328.92 465.53 1330.26 466.685ZM1356.15 488.907L1369.09 500.018C1370.44 501.173 1372.47 501.019 1373.62 499.674C1374.78 498.329 1374.63 496.303 1373.28 495.147L1360.34 484.037C1358.99 482.881 1356.96 483.035 1355.81 484.38C1354.65 485.725 1354.8 487.752 1356.15 488.907Z" fill="#061178"/>
<path fill-rule="evenodd" clip-rule="evenodd" d="M1381.67 506.527C1382.79 505.234 1384.7 505.043 1386.05 506.058L1386.2 506.185L1392.31 511.428C1393.59 512.532 1393.79 514.431 1392.8 515.772L1392.67 515.93L1387.53 522.029C1386.39 523.386 1384.36 523.559 1383.01 522.417C1381.7 521.319 1381.49 519.405 1382.49 518.053L1382.62 517.894L1385.71 514.224L1382.02 511.054C1380.72 509.942 1380.53 508.026 1381.55 506.685L1381.67 506.527Z" fill="#061178"/>
<path fill-rule="evenodd" clip-rule="evenodd" d="M1371.5 530.819L1360.39 543.762C1359.24 545.108 1359.39 547.135 1360.74 548.289C1362.09 549.443 1364.11 549.288 1365.27 547.942L1376.38 534.999C1377.53 533.653 1377.38 531.627 1376.03 530.472C1374.68 529.318 1372.66 529.473 1371.5 530.819ZM1349.28 556.706L1338.17 569.65C1337.02 570.995 1337.18 573.022 1338.52 574.176C1339.87 575.331 1341.9 575.175 1343.05 573.83L1354.16 560.886C1355.31 559.54 1355.16 557.514 1353.81 556.36C1352.47 555.205 1350.44 555.36 1349.28 556.706ZM1327.07 582.593L1315.96 595.537C1314.8 596.883 1314.96 598.909 1316.3 600.063C1317.65 601.218 1319.68 601.063 1320.83 599.717L1331.94 586.773C1333.1 585.428 1332.94 583.401 1331.59 582.247C1330.25 581.093 1328.22 581.248 1327.07 582.593ZM1304.85 608.48L1293.74 621.424C1292.58 622.77 1292.74 624.796 1294.09 625.951C1295.43 627.105 1297.46 626.95 1298.61 625.604L1309.72 612.66C1310.88 611.315 1310.72 609.288 1309.38 608.134C1308.03 606.98 1306 607.135 1304.85 608.48Z" fill="#061178"/>
<path fill-rule="evenodd" clip-rule="evenodd" d="M1283.5 570.192C1284.65 568.848 1286.68 568.697 1288.03 569.853L1288.76 570.504L1289.08 570.786C1289.91 571.536 1290.87 572.425 1291.95 573.45L1293.11 574.569C1295.87 577.237 1298.89 580.3 1302.1 583.745C1312.58 594.981 1323.06 607.986 1332.83 622.611C1356.53 658.066 1372.33 697.159 1376.52 739.088C1381.81 792.076 1368.09 846.172 1331.75 900.433C1330.76 901.906 1328.77 902.301 1327.29 901.315C1325.82 900.328 1325.42 898.335 1326.41 896.861C1361.93 843.833 1375.27 791.224 1370.13 739.726C1366.05 698.943 1350.65 660.816 1327.49 626.178C1317.92 611.855 1307.66 599.117 1297.4 588.123C1293.82 584.281 1290.5 580.934 1287.52 578.101L1286.4 577.048C1286.16 576.827 1285.93 576.615 1285.71 576.411L1284.77 575.551C1284.3 575.129 1283.99 574.851 1283.84 574.719C1282.49 573.563 1282.34 571.536 1283.5 570.192Z" fill="#061178"/>
<path fill-rule="evenodd" clip-rule="evenodd" d="M1286.36 580.525C1290.85 580.525 1294.5 576.884 1294.5 572.393C1294.5 567.902 1290.85 564.261 1286.36 564.261C1281.87 564.261 1278.22 567.902 1278.22 572.393C1278.22 576.884 1281.87 580.525 1286.36 580.525Z" fill="#061178"/>
<rect width="120.436" height="120.38" transform="matrix(0.950393 -0.311052 0.311374 0.950287 952.508 495.023)" fill="white"/>
<path fill-rule="evenodd" clip-rule="evenodd" d="M1065.96 454.51L951.509 491.959C949.823 492.51 948.904 494.323 949.457 496.008L986.953 610.417C987.505 612.102 989.319 613.021 991.005 612.47L1105.45 575.021C1107.14 574.469 1108.06 572.656 1107.51 570.971L1070.01 456.562C1069.46 454.877 1067.64 453.958 1065.96 454.51ZM1064.9 461.61L1100.4 569.918L992.057 605.369L956.56 497.061L1064.9 461.61Z" fill="#061178"/>
<path fill-rule="evenodd" clip-rule="evenodd" d="M1064.23 456.115C1065.04 454.537 1066.98 453.913 1068.55 454.721C1070.07 455.499 1070.71 457.321 1070.03 458.864L1069.95 459.041L992.649 609.916C991.84 611.494 989.905 612.118 988.326 611.31C986.805 610.532 986.17 608.71 986.847 607.167L986.931 606.99L1064.23 456.115Z" fill="#061178"/>
<path fill-rule="evenodd" clip-rule="evenodd" d="M949.773 493.579C950.545 492.056 952.365 491.413 953.912 492.082L954.089 492.165L1106.12 569.101C1107.7 569.902 1108.34 571.833 1107.54 573.415C1106.76 574.938 1104.94 575.581 1103.4 574.912L1103.22 574.828L951.187 497.893C949.605 497.092 948.972 495.161 949.773 493.579Z" fill="#061178"/>
<path fill-rule="evenodd" clip-rule="evenodd" d="M1432.27 1061.88C1433.8 1061.88 1435.04 1063.26 1435.04 1064.97C1435.04 1066.62 1433.89 1067.96 1432.43 1068.06L1432.27 1068.06H165.732C164.203 1068.06 162.963 1066.68 162.963 1064.97C162.963 1063.32 164.116 1061.98 165.569 1061.88L165.732 1061.88H1432.27Z" fill="#061178"/>
</g>
<defs>
<clipPath id="clip0">
<rect width="1600" height="1200" fill="white"/>
</clipPath>
</defs>
</svg>
