<svg width="1600" height="1200" viewBox="0 0 1600 1200" fill="none" xmlns="http://www.w3.org/2000/svg">
<path fill-rule="evenodd" clip-rule="evenodd" d="M280.067 743.99C318.86 872.276 384.474 992.884 509.952 1061.52C640.701 1133.05 795.865 1145.65 940.266 1105.14C1104.84 1058.96 1272.42 980.684 1327.72 832.095C1385.6 676.585 1324.85 503.303 1212.96 372.479C1106.96 248.538 940.65 193.669 769.792 179.76C591.727 165.265 388.694 169.553 278.583 296.416C172.399 418.754 234.159 592.178 280.067 743.99Z" fill="#F0F5FF"/>
<path fill-rule="evenodd" clip-rule="evenodd" d="M763.709 308.284C763.709 308.284 794.598 283.48 782.07 273.02C769.541 262.559 751.504 294.912 706.79 303.431C671.472 310.225 596.624 408.902 650.519 464.225C697.069 512 759.388 521.382 759.388 521.382L877.979 466.49C877.979 466.49 741.567 412.784 749.992 389.382C758.416 366.088 763.709 308.284 763.709 308.284Z" fill="white"/>
<path fill-rule="evenodd" clip-rule="evenodd" d="M766.013 271.157L765.662 271.358C761.911 273.554 748.025 282.897 743.822 285.424C731.978 292.546 720.454 297.396 707.225 300.049L706.177 300.254C686.713 303.999 658.597 331.936 642.307 364.172C622.731 402.91 622.754 440.364 648.197 466.481C657.283 475.806 667.337 484.089 678.196 491.393C695.83 503.254 714.705 512.008 733.58 518.134C739.802 520.153 745.609 521.747 750.874 522.964L751.854 523.187C753.363 523.527 754.743 523.816 755.985 524.058L757.527 524.348C758.166 524.463 758.629 524.54 758.906 524.581C759.534 524.676 760.176 524.584 760.752 524.317L879.342 469.425C881.865 468.257 881.822 464.699 879.353 463.559L878.808 463.338L876.349 462.354L873.688 461.275C869.607 459.613 865.089 457.738 860.238 455.68L859.193 455.236C844.199 448.858 829.206 442.101 815.223 435.267C804.706 430.127 795.176 425.143 786.867 420.385L785.834 419.792C763.055 406.641 751.134 395.776 753.042 390.476C755.926 382.502 758.596 370.339 761.069 355.026L761.214 354.122C762.806 344.153 764.219 333.484 765.439 322.816L765.882 318.854C765.988 317.892 766.089 316.952 766.186 316.036L766.686 311.171L766.808 309.918L766.716 309.997C767.47 309.362 768.307 308.636 769.208 307.83C771.781 305.528 774.353 303.035 776.763 300.435C780.072 296.865 782.812 293.37 784.799 290.016C789.414 282.228 789.84 275.29 784.149 270.537C779.152 266.365 773.549 266.959 766.013 271.157ZM706.887 306.714L707.397 306.609C721.886 303.848 734.398 298.644 747.166 290.967L747.639 290.679C752.673 287.588 766.423 278.338 769.17 276.807L769.882 276.418C774.882 273.746 777.655 273.55 779.992 275.501C782.64 277.712 782.418 281.328 779.222 286.721C777.5 289.628 775.028 292.78 772.007 296.04C769.746 298.48 767.314 300.835 764.883 303.012C764.315 303.519 763.776 303.993 763.27 304.428L762.537 305.052C762.119 305.404 761.826 305.644 761.679 305.763C760.994 306.312 760.562 307.116 760.482 307.989L760.151 311.399L759.836 314.455C759.618 316.537 759.377 318.753 759.114 321.079L759 322.082C757.872 331.957 756.576 341.83 755.127 351.121L754.815 353.103C752.361 368.465 749.713 380.63 746.945 388.283C743.321 398.349 756.414 410.281 782.591 425.394C791.282 430.411 801.294 435.664 812.374 441.079C825.641 447.562 839.79 453.969 853.99 460.052L857.704 461.635L861.071 463.057C862.91 463.83 864.694 464.573 866.417 465.286L869.837 466.693L758.936 518.025L758.197 517.892C756.941 517.659 755.501 517.367 753.891 517.012L753.28 516.875C747.948 515.675 741.997 514.062 735.583 511.98C717.248 506.029 698.912 497.525 681.816 486.026C671.317 478.965 661.607 470.965 652.842 461.969C629.654 438.167 629.634 403.615 648.093 367.087C663.414 336.768 689.769 310.429 706.887 306.714Z" fill="#061178"/>
<rect x="765.653" y="285.529" width="182.098" height="84.2255" fill="#85A5FF"/>
<path fill-rule="evenodd" clip-rule="evenodd" d="M838.773 346.137C840.563 346.137 842.013 347.586 842.013 349.372C842.013 351.095 840.664 352.504 838.963 352.602L838.773 352.608H788.982C787.193 352.608 785.742 351.159 785.742 349.372C785.742 347.65 787.091 346.241 788.792 346.143L788.982 346.137H838.773Z" fill="#061178"/>
<path fill-rule="evenodd" clip-rule="evenodd" d="M921.398 331.578C923.187 331.578 924.638 333.027 924.638 334.813C924.638 336.536 923.289 337.945 921.588 338.043L921.398 338.049H788.982C787.193 338.049 785.742 336.6 785.742 334.813C785.742 333.09 787.091 331.682 788.792 331.584L788.982 331.578H921.398Z" fill="#061178"/>
<path fill-rule="evenodd" clip-rule="evenodd" d="M921.398 317.667C923.187 317.667 924.638 319.115 924.638 320.902C924.638 322.625 923.289 324.033 921.588 324.132L921.398 324.137H788.982C787.193 324.137 785.742 322.689 785.742 320.902C785.742 319.179 787.091 317.77 788.792 317.672L788.982 317.667H921.398Z" fill="#061178"/>
<path fill-rule="evenodd" clip-rule="evenodd" d="M921.398 303.647C923.187 303.647 924.638 305.095 924.638 306.882C924.638 308.605 923.289 310.014 921.588 310.112L921.398 310.118H788.982C787.193 310.118 785.742 308.669 785.742 306.882C785.742 305.159 787.091 303.751 788.792 303.652L788.982 303.647H921.398Z" fill="#061178"/>
<path fill-rule="evenodd" clip-rule="evenodd" d="M708.518 302.999C738.76 293.078 788.983 299.764 795.787 303.647C802.591 307.529 803.672 322.196 787.795 321.656C771.918 321.117 740.704 316.803 740.704 316.803C764.465 323.49 793.843 333.196 797.515 337.509C803.132 344.088 793.735 356.49 777.642 351.421L731.524 338.696C731.524 338.696 781.962 358.107 787.471 362.529C792.979 367.058 787.471 385.607 756.905 371.803C726.339 357.999 723.531 359.617 723.531 359.617C723.531 359.617 760.037 378.274 766.518 383.774C772.998 389.274 752.477 409.009 719.535 385.715C719.535 385.715 713.487 410.088 682.705 399.088" fill="white"/>
<path fill-rule="evenodd" clip-rule="evenodd" d="M707.507 299.926C721.314 295.396 740.008 293.877 760.058 294.862L761.115 294.916C777.577 295.794 793.053 298.36 797.395 300.837C802.049 303.493 804.615 309.551 803.467 314.978C802.126 321.315 796.363 325.185 787.685 324.89L786.482 324.843C783.398 324.71 779.732 324.452 775.567 324.085L775.062 324.04L777.556 324.915C789.273 329.073 797.534 332.76 799.857 335.271L799.981 335.41C803.977 340.092 802.835 346.789 797.888 351.237C793.872 354.847 788.087 356.47 781.624 355.618L781.217 355.56L782.545 356.182C785.801 357.725 788.062 358.943 789.267 359.83L789.53 360.031C794.273 363.931 793.436 372.174 787.696 376.602C782.565 380.559 774.653 381.217 764.428 378.123L763.727 377.905L764.554 378.429C766.255 379.52 767.568 380.441 768.465 381.182L768.616 381.309C771.64 383.875 771.619 387.947 769.229 391.483C767.152 394.556 763.428 397.137 758.802 398.622C748.518 401.925 735.518 399.697 721.627 390.998L721.078 390.652L720.829 391.152C720.096 392.582 719.214 393.995 718.167 395.353L717.767 395.86C710.399 404.968 698.42 408.14 681.613 402.134C679.928 401.532 679.051 399.68 679.654 397.998C680.257 396.315 682.112 395.44 683.797 396.042C698.044 401.133 707.114 398.731 712.726 391.794C713.966 390.261 714.932 388.609 715.65 386.961C715.848 386.505 716.015 386.078 716.151 385.689L716.247 385.405C716.331 385.15 716.377 384.988 716.39 384.937C716.939 382.725 719.545 381.758 721.408 383.075C735.206 392.832 747.634 395.411 756.818 392.462C760.133 391.398 762.645 389.657 763.857 387.864C764.281 387.236 764.469 386.708 764.47 386.375L764.469 386.299C764.466 386.283 764.46 386.275 764.446 386.262L764.166 386.031C761.82 384.153 755.573 380.431 746.73 375.567L743.963 374.054C739.705 371.738 735.173 369.326 730.611 366.935L727.575 365.35L722.055 362.497C719.769 361.329 719.688 358.096 721.912 356.815C722.247 356.622 722.605 356.494 722.984 356.417L723.189 356.382C726.458 355.909 735.364 358.684 754.388 367.13L758.24 368.856C770.848 374.549 779.446 374.788 783.735 371.481C786.378 369.442 786.717 366.1 785.44 365.05C783.75 363.693 775.385 359.876 763.016 354.744L759.463 353.279L758.512 352.889C752.971 350.623 747.071 348.262 741.135 345.921L736.177 343.975L730.358 341.714C726.582 340.261 728.362 334.668 732.196 335.53L732.387 335.577L778.505 348.303L778.617 348.336C784.92 350.321 790.305 349.347 793.552 346.428C796.082 344.154 796.556 341.373 795.046 339.605C792.437 336.54 767.002 327.565 739.825 319.917C736.009 318.843 737.113 313.241 740.948 313.576L746.241 314.277L746.897 314.362C751.328 314.935 755.985 315.508 760.648 316.043L763.534 316.369C764.961 316.528 766.364 316.679 767.738 316.823L770.674 317.124C777.656 317.822 783.519 318.274 787.905 318.423C793.618 318.617 796.48 316.695 797.126 313.641C797.704 310.91 796.339 307.688 794.18 306.456C791.03 304.659 776.207 302.201 760.769 301.377C741.051 300.326 722.678 301.76 709.53 306.073C707.83 306.631 705.999 305.707 705.44 304.009C704.881 302.312 705.807 300.484 707.507 299.926Z" fill="#061178"/>
<path fill-rule="evenodd" clip-rule="evenodd" d="M1064.18 1036.33L1087.73 915.657C1087.73 915.657 1057.05 775.353 1067.1 744.402C1077.14 713.451 1110.84 677.108 1110.84 677.108L1014.28 639.471L1012.66 490.108C1030.27 496.794 1207.61 568.726 1207.61 568.726C1207.61 568.726 1356.34 597.735 1380.42 605.5C1445.98 626.745 1550.64 694.579 1395.98 869.608L1414.55 1035.36" fill="#061178"/>
<path fill-rule="evenodd" clip-rule="evenodd" d="M1189.14 537.128L1207.61 569.696L1194.22 564.412C1191.09 569.912 1139.03 657.049 1229.86 677.216C1289.37 690.48 1346.83 651.549 1378.05 608.735L1339.16 591.804L1298.12 495.608L1189.14 537.128Z" fill="white"/>
<path fill-rule="evenodd" clip-rule="evenodd" d="M1187.99 534.105L1187.81 534.18C1186.09 534.956 1185.38 537.056 1186.32 538.721L1200.27 563.32L1195.41 561.403C1193.97 560.835 1192.34 561.363 1191.51 562.641L1190.97 563.573L1190.49 564.411L1190.25 564.839C1189.57 566.044 1188.88 567.312 1188.16 568.694C1186.19 572.47 1184.27 576.523 1182.47 580.845C1176.52 595.113 1173.06 609.368 1173.32 622.813C1173.89 651.415 1191.26 671.958 1229.16 680.374C1257.96 686.794 1287.75 681.663 1316.07 666.871C1341.06 653.815 1363.91 633.621 1380.67 610.639L1380.78 610.475C1381.84 608.815 1381.18 606.57 1379.34 605.77L1341.64 589.351L1301.1 494.34C1300.42 492.74 1298.59 491.965 1296.97 492.585L1187.99 534.105ZM1296.36 499.739L1336.18 593.072L1336.28 593.275C1336.62 593.94 1337.18 594.469 1337.87 594.769L1373.01 610.07L1372.79 610.359C1356.88 631.093 1335.87 649.228 1313.06 661.138C1286.03 675.258 1257.78 680.124 1230.57 674.058C1195.54 666.281 1180.31 648.261 1179.8 622.685C1179.56 610.27 1182.82 596.841 1188.45 583.33C1190.17 579.191 1192.02 575.305 1193.91 571.688L1194.25 571.035C1194.48 570.607 1194.7 570.189 1194.92 569.781L1195.65 568.453L1206.42 572.705L1206.59 572.766C1209.37 573.706 1211.91 570.705 1210.43 568.102L1193.82 538.807L1296.36 499.739Z" fill="#061178"/>
<path fill-rule="evenodd" clip-rule="evenodd" d="M616.93 875.539L577.508 1020.05H814.689L776.239 874.353L616.93 875.539Z" fill="#ADC6FF"/>
<path fill-rule="evenodd" clip-rule="evenodd" d="M692.858 912.745C675.261 912.745 660.996 926.989 660.996 944.559C660.996 962.129 675.261 976.373 692.858 976.373C710.455 976.373 724.72 962.129 724.72 944.559C724.72 926.989 710.455 912.745 692.858 912.745ZM692.858 919.216C706.876 919.216 718.239 930.562 718.239 944.559C718.239 958.555 706.876 969.902 692.858 969.902C678.84 969.902 667.476 958.555 667.476 944.559C667.476 930.562 678.84 919.216 692.858 919.216Z" fill="#061178"/>
<path fill-rule="evenodd" clip-rule="evenodd" d="M755.407 878.213C757.087 877.819 758.769 878.807 759.254 880.438L759.303 880.622L791.057 1015.43C791.467 1017.17 790.387 1018.91 788.645 1019.32C786.965 1019.71 785.283 1018.72 784.798 1017.09L784.749 1016.91L752.995 882.103C752.585 880.364 753.665 878.622 755.407 878.213Z" fill="#061178"/>
<path fill-rule="evenodd" clip-rule="evenodd" d="M1015.58 880.931H356.204C349.724 880.931 344.323 875.539 344.323 869.068V476.304C344.323 469.725 349.724 464.441 356.204 464.441H1015.58C1022.06 464.441 1027.46 469.725 1027.46 476.304V869.068C1027.46 875.539 1022.17 880.931 1015.58 880.931Z" fill="#ADC6FF"/>
<path fill-rule="evenodd" clip-rule="evenodd" d="M957.041 487.304H388.822C380.444 487.304 373.701 494.037 373.701 502.402V833.696C373.701 842.061 380.444 848.794 388.822 848.794H957.041C965.418 848.794 972.161 842.061 972.161 833.696V502.402C972.161 494.037 965.418 487.304 957.041 487.304ZM388.822 493.774H957.041C961.84 493.774 965.681 497.61 965.681 502.402V833.696C965.681 838.488 961.84 842.323 957.041 842.323H388.822C384.023 842.323 380.181 838.488 380.181 833.696V502.402C380.181 497.61 384.023 493.774 388.822 493.774Z" fill="#061178"/>
<path fill-rule="evenodd" clip-rule="evenodd" d="M998.839 464.441C1000.56 464.441 1001.97 465.788 1002.07 467.486L1002.08 467.676V877.157C1002.08 878.943 1000.63 880.392 998.839 880.392C997.113 880.392 995.703 879.045 995.604 877.347L995.599 877.157V467.676C995.599 465.889 997.049 464.441 998.839 464.441Z" fill="#061178"/>
<path fill-rule="evenodd" clip-rule="evenodd" d="M776.563 877.265C778.352 877.265 779.803 878.713 779.803 880.5C779.803 882.223 778.454 883.631 776.753 883.73L776.563 883.735H616.066C614.277 883.735 612.826 882.287 612.826 880.5C612.826 878.777 614.175 877.369 615.876 877.27L616.066 877.265H776.563Z" fill="#061178"/>
<path fill-rule="evenodd" clip-rule="evenodd" d="M793.736 666.755C828.512 666.755 856.703 638.606 856.703 603.882C856.703 569.159 828.512 541.01 793.736 541.01C758.96 541.01 730.769 569.159 730.769 603.882C730.769 638.606 758.96 666.755 793.736 666.755Z" fill="#85A5FF"/>
<rect x="725.692" y="599.029" width="9.72052" height="9.70587" fill="#061178"/>
<rect x="851.411" y="599.029" width="9.72058" height="9.70587" fill="#061178"/>
<rect x="788.876" y="662.441" width="9.72052" height="9.70593" fill="#061178"/>
<rect x="788.876" y="536.049" width="9.72052" height="9.70584" fill="#061178"/>
<path fill-rule="evenodd" clip-rule="evenodd" d="M857.027 538.96H730.444C729.251 538.96 728.284 539.926 728.284 541.117V667.186C728.284 668.377 729.251 669.343 730.444 669.343H857.027C858.22 669.343 859.187 668.377 859.187 667.186V541.117C859.187 539.926 858.22 538.96 857.027 538.96ZM854.867 543.273V665.028H732.604V543.273H854.867Z" fill="#061178"/>
<rect x="725.584" y="536.049" width="9.72058" height="9.70584" fill="#061178"/>
<rect x="851.843" y="536.049" width="9.72052" height="9.70584" fill="#061178"/>
<rect x="725.584" y="662.657" width="9.72058" height="9.70587" fill="#061178"/>
<rect x="851.843" y="662.657" width="9.72052" height="9.70587" fill="#061178"/>
<path fill-rule="evenodd" clip-rule="evenodd" d="M882.193 1039.35H509.896C503.308 1039.35 498.016 1034.07 498.016 1027.49V1026.09C498.016 1019.51 503.308 1014.23 509.896 1014.23H882.193C888.781 1014.23 894.073 1019.51 894.073 1026.09V1027.49C894.073 1034.07 888.781 1039.35 882.193 1039.35Z" fill="#061178"/>
<path fill-rule="evenodd" clip-rule="evenodd" d="M839.638 624.588C839.638 624.588 833.59 589.539 844.715 566.029C869.232 514.048 861.78 633.539 886.621 638.068" fill="white"/>
<path fill-rule="evenodd" clip-rule="evenodd" d="M850.502 551.495C854.03 548.731 857.865 549.256 860.588 552.63C863.73 556.524 865.714 563.752 868.428 578.593L871.349 594.996L871.775 597.289C876.321 621.372 880.932 633.508 887.012 634.847L887.203 634.886C888.963 635.207 890.13 636.892 889.808 638.65C889.487 640.407 887.799 641.572 886.039 641.251C879.92 640.135 875.539 634.439 872.008 624.888C869.5 618.104 867.514 609.818 865.28 597.818L864.591 594.032C863.834 589.8 862.536 582.421 862.292 581.07L861.944 579.161C859.57 566.308 857.722 559.534 855.643 556.818L855.261 556.332C855.093 556.126 855.045 556.144 854.793 556.35L854.503 556.586C852.761 557.951 850.419 561.528 847.644 567.411C845.205 572.566 843.498 578.624 842.459 585.404C840.844 595.94 840.926 607.263 842.04 617.943L842.174 619.171C842.287 620.167 842.403 621.096 842.52 621.951L842.701 623.216L842.831 624.039C843.135 625.799 841.952 627.473 840.189 627.776C838.425 628.08 836.749 626.898 836.445 625.137L836.318 624.342C836.275 624.065 836.227 623.737 836.174 623.361C835.976 621.965 835.779 620.374 835.595 618.613C834.428 607.43 834.342 595.587 836.053 584.425C837.181 577.067 839.055 570.417 841.783 564.651C844.956 557.924 847.755 553.648 850.502 551.495Z" fill="#061178"/>
<path fill-rule="evenodd" clip-rule="evenodd" d="M1278.47 747.205L1197.14 843.941C1197.14 843.941 991.279 736.96 937.276 675.058C887.809 623.294 876.792 622.862 876.792 622.862C876.792 622.862 813.717 624.372 793.844 631.382C773.971 638.284 708.843 659.853 712.515 670.205C715.108 677.539 750.642 673.441 768.895 670.637L803.24 715.5C803.24 715.5 819.441 710.862 828.73 711.833C847.847 713.774 869.016 721.431 879.709 715.5C879.709 715.5 984.042 908.323 1182.12 977.558C1202.75 984.784 1225.33 983.921 1245.2 974.97C1294.34 952.862 1385.5 895.166 1432.16 820.539L1278.47 747.205Z" fill="white"/>
<path fill-rule="evenodd" clip-rule="evenodd" d="M793.519 628.074L776.893 633.826L776.488 633.967C768.621 636.729 761.517 639.31 754.78 641.887L752.337 642.827C746.705 645.01 741.548 647.114 736.899 649.141L735.91 649.575C716.318 658.204 707.038 664.454 709.461 671.286C711.396 676.759 719.943 678.055 734.961 677.455L736.013 677.41C744.83 677.006 755.323 675.883 765.632 674.394L767.484 674.121L800.666 717.464C801.43 718.463 802.7 718.924 803.919 718.663L805.585 718.216C805.802 718.159 806.029 718.1 806.266 718.04C807.964 717.605 809.806 717.17 811.725 716.765C814.45 716.189 817.098 715.721 819.575 715.401C823.105 714.945 826.114 714.813 828.392 715.051C830.979 715.313 833.721 715.694 836.833 716.208L838.782 716.539C840.244 716.793 841.765 717.07 843.745 717.441L851.81 718.947C858.042 720.08 861.005 720.493 864.828 720.781L865.456 720.825C870.443 721.153 874.58 720.844 878.04 719.724L878.312 719.632L878.71 720.327C880.232 722.976 882.054 726.045 884.173 729.498L885.486 731.626C891.255 740.92 898.037 751.162 905.826 762.128C929.782 795.855 958.301 829.578 991.316 861.06C1047.48 914.611 1110.77 956.045 1181.05 980.612C1202.52 988.132 1225.95 987.188 1246.53 977.919C1274.81 965.196 1309.76 944.286 1341.58 920.02C1380.82 890.092 1413.24 856.901 1434.91 822.252C1435.93 820.615 1435.3 818.452 1433.55 817.62L1279.86 744.286L1279.67 744.202C1278.38 743.685 1276.89 744.049 1275.98 745.125L1196.33 839.867L1190.54 836.808L1186.95 834.897C1177.64 829.934 1167.26 824.317 1156.09 818.159C1124.18 800.566 1092.26 782.169 1062.48 763.876L1058.51 761.428C1044.02 752.472 1030.41 743.758 1017.82 735.347L1014.55 733.149C979.548 709.565 953.867 689.151 939.718 672.933L939.619 672.825L937.451 670.563C917.153 649.455 901.908 635.506 890.964 627.358L890.121 626.735C883.486 621.874 879.463 619.905 877.213 619.653L877.015 619.635L876.865 619.628L876.628 619.63L873.318 619.727L869.406 619.862C867.312 619.94 865.09 620.03 862.762 620.133C852.307 620.598 841.85 621.234 832.081 622.068L831.209 622.144C814.125 623.63 801.123 625.561 793.519 628.074ZM876.519 626.105L876.574 626.123C876.911 626.229 877.365 626.409 877.942 626.682L878.196 626.805C880.257 627.814 883.046 629.56 886.637 632.209L887.467 632.826C898.068 640.779 912.949 654.425 932.786 675.055L934.874 677.231L935.75 678.224C950.829 695.132 977.295 715.978 1013.11 739.98L1014.22 740.724C1028.02 749.948 1043.04 759.529 1059.09 769.388C1087.89 787.084 1118.68 804.868 1149.53 821.931L1155.74 825.355C1164.5 830.17 1172.75 834.64 1180.34 838.708L1186.1 841.778C1188 842.791 1189.77 843.725 1191.38 844.576L1195.64 846.811L1195.83 846.9C1197.14 847.479 1198.69 847.13 1199.62 846.021L1279.33 751.204L1427.46 821.885L1427.32 822.103C1406.14 854.841 1375.06 886.339 1337.64 914.878C1306.22 938.846 1271.7 959.501 1243.87 972.021C1224.81 980.603 1203.1 981.478 1183.2 974.506C1113.85 950.268 1051.32 909.334 995.792 856.38C963.096 825.203 934.841 791.792 911.112 758.384C902.81 746.697 895.669 735.848 889.699 726.117L888.823 724.684C887.25 722.099 885.86 719.755 884.654 717.668L883.702 716.007C883.506 715.663 883.324 715.34 883.156 715.04L882.559 713.962C881.733 712.435 879.858 711.841 878.311 712.58L877.793 712.855C872.864 715.417 866.446 715.054 849.577 711.95L842.218 710.578C840.983 710.354 839.893 710.162 838.775 709.972C835.174 709.362 832.029 708.916 829.057 708.614C826.204 708.316 822.73 708.469 818.743 708.984C816.08 709.328 813.266 709.825 810.383 710.434L809.525 710.619C808.105 710.928 806.731 711.251 805.429 711.577L804.496 711.812L771.468 668.672C770.749 667.732 769.573 667.259 768.401 667.439C756.728 669.232 744.505 670.599 734.702 670.99L733.345 671.038C727.993 671.205 723.586 671.054 720.337 670.562C718.571 670.295 717.206 669.933 716.302 669.512L716.134 669.431C715.975 669.35 715.843 669.272 715.738 669.2L715.688 669.164L715.721 669.102C715.811 668.935 715.948 668.728 716.139 668.487C716.942 667.474 718.405 666.232 720.469 664.842C724.393 662.2 730.257 659.165 737.791 655.819L738.525 655.495C743.975 653.094 750.188 650.571 757.097 647.929C763.355 645.536 769.942 643.135 777.181 640.584L794.908 634.438C801.833 631.995 815.084 630.014 832.633 628.515C841.613 627.748 851.198 627.15 860.827 626.699L865.005 626.513C867.254 626.418 869.392 626.335 871.395 626.266L875.53 626.133L876.519 626.105Z" fill="#061178"/>
<path fill-rule="evenodd" clip-rule="evenodd" d="M801.404 645.725C801.404 645.725 758.094 670.637 761.118 687.352C764.142 704.068 777.427 699.539 777.427 699.539" fill="white"/>
<path fill-rule="evenodd" clip-rule="evenodd" d="M804.212 644.11C805.072 645.601 804.61 647.491 803.19 648.425L801.622 649.357L801.345 649.525C799.988 650.345 798.474 651.288 796.842 652.339C792.18 655.34 787.52 658.596 783.182 661.984C776.957 666.846 771.943 671.56 768.6 675.905C765.238 680.274 763.801 683.981 764.307 686.777C765.294 692.234 767.385 695.08 770.207 696.245C771.936 696.959 773.881 697.011 775.682 696.647C775.832 696.617 775.97 696.586 776.093 696.555L776.38 696.477C778.073 695.9 779.915 696.802 780.493 698.493C781.072 700.184 780.167 702.023 778.474 702.601L778.192 702.69C777.877 702.784 777.464 702.889 776.966 702.99C774.012 703.586 770.822 703.501 767.731 702.225C762.758 700.172 759.291 695.453 757.929 687.928C757.031 682.96 759.095 677.637 763.461 671.963C767.192 667.114 772.573 662.056 779.189 656.888C783.697 653.367 788.514 650.001 793.33 646.9L794.571 646.108C795.585 645.464 796.549 644.866 797.453 644.314L799.068 643.343L799.787 642.922C801.337 642.03 803.319 642.562 804.212 644.11Z" fill="#061178"/>
<path fill-rule="evenodd" clip-rule="evenodd" d="M810.801 663.304C810.801 663.304 774.187 688.755 778.399 705.255C782.611 721.755 795.572 716.147 795.572 716.147" fill="white"/>
<path fill-rule="evenodd" clip-rule="evenodd" d="M813.46 661.455C814.482 662.921 814.12 664.938 812.652 665.959L811.743 666.607L811.308 666.924C810.214 667.723 808.994 668.642 807.678 669.667C803.917 672.595 800.158 675.775 796.659 679.084C791.567 683.902 787.482 688.573 784.786 692.878C781.872 697.531 780.774 701.461 781.539 704.455C782.825 709.495 784.928 712.169 787.567 713.254C789.37 713.996 791.406 713.98 793.342 713.475C793.709 713.38 793.987 713.29 794.154 713.229L794.283 713.178C795.925 712.468 797.833 713.221 798.545 714.86C799.256 716.5 798.502 718.405 796.86 719.115C796.45 719.293 795.81 719.52 794.978 719.736C791.798 720.565 788.393 720.592 785.098 719.237C780.448 717.324 777.025 712.973 775.259 706.054C773.974 701.021 775.53 695.455 779.291 689.448C782.323 684.606 786.745 679.549 792.202 674.387C795.865 670.922 799.779 667.612 803.692 664.565L804.701 663.785C805.69 663.027 806.621 662.33 807.48 661.703L808.156 661.212L808.949 660.648C810.418 659.627 812.437 659.989 813.46 661.455Z" fill="#061178"/>
<path fill-rule="evenodd" clip-rule="evenodd" d="M823.006 684.765C823.006 684.765 779.371 716.039 805.077 725.421C830.782 734.804 839.206 728.98 839.206 728.98C839.206 728.98 848.927 715.069 822.033 710.971" fill="white"/>
<path fill-rule="evenodd" clip-rule="evenodd" d="M825.637 682.878C826.64 684.273 826.371 686.196 825.057 687.268L824.054 688.011L823.835 688.176C822.97 688.826 822.003 689.574 820.961 690.407C817.982 692.786 815.005 695.36 812.235 698.026C808.541 701.583 805.516 705.024 803.403 708.198C798.503 715.562 799.008 719.762 806.188 722.383C820.801 727.716 830.488 728.482 836.142 726.776L836.502 726.662C836.611 726.626 836.709 726.592 836.797 726.56L836.882 726.527L837.004 726.268L837.079 726.097C837.837 724.315 837.932 722.558 837.057 720.983C835.429 718.052 830.623 715.552 821.544 714.168C819.775 713.899 818.56 712.248 818.83 710.482C819.1 708.716 820.752 707.502 822.521 707.772C833.389 709.428 839.943 712.837 842.724 717.844C844.714 721.426 844.51 725.18 843.043 728.627C842.627 729.606 842.197 730.353 841.863 730.831C841.642 731.147 841.367 731.421 841.05 731.64C840.45 732.055 839.451 732.537 838.017 732.97C830.895 735.119 819.805 734.242 803.963 728.46C792.154 724.149 791.059 715.055 798.006 704.617C800.415 700.997 803.733 697.224 807.737 693.368C810.663 690.551 813.788 687.85 816.912 685.354C817.693 684.73 818.435 684.151 819.129 683.62L820.172 682.831L821.115 682.136C822.569 681.094 824.593 681.426 825.637 682.878Z" fill="#061178"/>
<path fill-rule="evenodd" clip-rule="evenodd" d="M1125.42 375.579C1118.51 398.441 1098.74 506.932 1170.24 533.892C1241.74 560.853 1309.03 506.824 1334.41 439.961C1359.79 373.098 1343.92 307.853 1298.99 289.735C1254.16 271.618 1175.54 210.039 1125.42 375.579Z" fill="white"/>
<path fill-rule="evenodd" clip-rule="evenodd" d="M1205.43 261.921C1171.48 269.635 1144.05 303.988 1122.96 372.555L1122.32 374.643C1116.54 393.752 1112.59 425.697 1115.2 453.5C1119.06 494.543 1135.94 524.416 1169.1 536.919C1203.94 550.056 1239.64 545.116 1271.37 524.835C1300.42 506.266 1324.28 475.777 1337.44 441.107C1363.27 373.06 1347.24 305.702 1300.2 286.735L1298.95 286.222C1296.55 285.224 1293.93 284.057 1290.71 282.563L1287.19 280.912C1284.21 279.507 1278.5 276.803 1276.4 275.829L1274.55 274.977C1262.09 269.259 1252.53 265.597 1242.68 263.132C1229.45 259.821 1217.18 259.251 1205.43 261.921ZM1128.33 377.151L1128.52 376.514C1149.1 308.552 1175.3 275.404 1206.87 268.23C1217.53 265.806 1228.8 266.329 1241.1 269.408C1250.72 271.816 1260.18 275.47 1272.76 281.278L1276.92 283.223C1280.56 284.934 1285.44 287.246 1286.19 287.598L1288.67 288.752C1292.23 290.393 1295.08 291.646 1297.77 292.734C1340.98 310.156 1356.1 373.69 1331.38 438.814C1318.7 472.221 1295.71 501.59 1267.88 519.385C1237.81 538.605 1204.23 543.25 1171.39 530.865C1140.93 519.382 1125.3 491.723 1121.65 452.896C1119.16 426.291 1122.89 395.578 1128.33 377.151Z" fill="#061178"/>
<rect width="27.4178" height="48.3396" transform="matrix(0.796351 0.604834 -0.605986 0.795475 1406.92 229.615)" fill="#ADC6FF"/>
<path fill-rule="evenodd" clip-rule="evenodd" d="M1443.5 257.274C1470.22 257.274 1491.88 235.644 1491.88 208.961C1491.88 182.278 1470.22 160.647 1443.5 160.647C1416.77 160.647 1395.11 182.278 1395.11 208.961C1395.11 235.644 1416.77 257.274 1443.5 257.274Z" fill="#061178"/>
<path fill-rule="evenodd" clip-rule="evenodd" d="M1387.12 255.333C1352.02 227.079 1311.19 204.539 1267.45 204.863C1132.55 212.196 1098.74 298.471 1131.69 356.49V356.49C1153.61 294.588 1180.18 270.755 1206.64 264.931C1215.39 310.441 1277.39 371.049 1345.21 398.226C1345.11 398.873 1345 399.52 1344.89 400.167C1364.44 405.128 1393.17 418.177 1382.37 451.931C1367.46 498.628 1321.99 478.03 1316.27 475.226C1311.08 483.098 1305.25 490.539 1298.88 497.333L1316.05 534.431L1466.29 557.402C1475.47 560.745 1485.3 554.167 1485.84 544.353C1488.64 483.314 1499.34 347.971 1387.12 255.333Z" fill="#061178"/>
<path fill-rule="evenodd" clip-rule="evenodd" d="M1307.2 469.726L1315.62 475.118C1315.62 475.118 1366.38 501.971 1382.37 452.147C1394.46 414.294 1357.2 402.431 1338.41 398.873" fill="white"/>
<path fill-rule="evenodd" clip-rule="evenodd" d="M1335.23 398.27C1335.56 396.514 1337.25 395.361 1339.01 395.694C1352.58 398.262 1364.9 402.831 1374 410.127C1386.73 420.334 1391.34 434.699 1385.45 453.134C1379.24 472.494 1367.43 482.678 1351.86 485.05C1342.63 486.457 1332.87 485.023 1323.33 481.795C1320.9 480.971 1318.66 480.087 1316.67 479.201L1315.83 478.819C1315.14 478.499 1314.6 478.236 1314.23 478.045L1313.99 477.911L1313.87 477.841L1305.45 472.449C1303.94 471.485 1303.5 469.484 1304.47 467.98C1305.4 466.531 1307.29 466.071 1308.77 466.9L1308.94 467.002L1317.24 472.315L1317.66 472.523L1318.27 472.813C1318.59 472.964 1318.94 473.124 1319.31 473.292C1321.13 474.1 1323.18 474.91 1325.41 475.667C1334.05 478.591 1342.83 479.88 1350.89 478.653C1364.01 476.655 1373.82 468.196 1379.28 451.164C1384.34 435.326 1380.62 423.731 1369.94 415.172C1361.84 408.672 1350.42 404.44 1337.81 402.051C1336.05 401.718 1334.89 400.025 1335.23 398.27Z" fill="#061178"/>
<path fill-rule="evenodd" clip-rule="evenodd" d="M1205.25 469.888C1206.53 468.642 1208.58 468.669 1209.83 469.949C1211.08 471.229 1211.05 473.277 1209.77 474.524C1199.31 484.691 1188.79 485.149 1179.91 479.624C1178.72 478.882 1177.66 478.087 1176.74 477.286C1176.17 476.787 1175.76 476.38 1175.52 476.109C1174.31 474.787 1174.41 472.741 1175.73 471.538C1177 470.382 1178.95 470.427 1180.17 471.607L1180.47 471.92C1180.6 472.042 1180.78 472.212 1181.01 472.419C1181.68 472.999 1182.46 473.585 1183.34 474.132C1189.82 478.165 1197.06 477.849 1205.25 469.888Z" fill="#061178"/>
<path fill-rule="evenodd" clip-rule="evenodd" d="M1198.5 342.439C1199.23 340.809 1201.15 340.081 1202.78 340.813C1204.36 341.518 1205.09 343.324 1204.49 344.914L1204.41 345.089L1168.51 424.954L1186.93 429.711C1188.6 430.142 1189.63 431.798 1189.3 433.467L1189.26 433.653C1188.83 435.321 1187.17 436.347 1185.49 436.017L1185.31 435.975L1163.17 430.26C1161.29 429.774 1160.27 427.766 1160.95 425.98L1161.02 425.802L1198.5 342.439Z" fill="#061178"/>
<path fill-rule="evenodd" clip-rule="evenodd" d="M1239.47 350.833C1249.39 346.47 1258.39 349.592 1265.82 357.165C1267.52 358.906 1269.02 360.761 1270.3 362.618L1270.67 363.162C1271.25 364.034 1271.67 364.733 1271.92 365.193C1272.77 366.764 1272.19 368.728 1270.61 369.579C1269.1 370.399 1267.22 369.889 1266.32 368.447L1266 367.902L1265.93 367.781C1265.66 367.335 1265.34 366.831 1264.96 366.286C1263.88 364.718 1262.62 363.149 1261.19 361.694C1255.45 355.85 1249.13 353.655 1242.08 356.755C1240.44 357.475 1238.53 356.733 1237.81 355.097C1237.09 353.462 1237.83 351.553 1239.47 350.833Z" fill="#061178"/>
<path fill-rule="evenodd" clip-rule="evenodd" d="M1143.71 326.342C1153.28 320.461 1162.91 322.669 1171.47 329.646C1173.19 331.048 1174.73 332.545 1176.08 334.044L1176.51 334.522C1177.11 335.211 1177.55 335.764 1177.82 336.132C1178.88 337.571 1178.57 339.596 1177.13 340.655C1175.75 341.673 1173.82 341.427 1172.73 340.127L1172.29 339.572C1172 339.213 1171.66 338.808 1171.26 338.369C1170.13 337.104 1168.82 335.837 1167.37 334.659C1160.72 329.239 1153.91 327.675 1147.1 331.854C1145.58 332.79 1143.58 332.314 1142.64 330.792C1141.71 329.27 1142.18 327.278 1143.71 326.342Z" fill="#061178"/>
<path fill-rule="evenodd" clip-rule="evenodd" d="M1235.66 396.032C1237.05 389.69 1234.87 383.825 1230.79 382.932C1226.72 382.039 1222.28 386.456 1220.89 392.798C1219.5 399.139 1221.67 405.004 1225.75 405.897C1229.83 406.79 1234.27 402.373 1235.66 396.032Z" fill="#061178"/>
<path fill-rule="evenodd" clip-rule="evenodd" d="M1157.12 379.161C1158.51 372.819 1156.33 366.954 1152.25 366.061C1148.18 365.168 1143.74 369.585 1142.35 375.927C1140.96 382.268 1143.13 388.133 1147.21 389.026C1151.29 389.919 1155.73 385.502 1157.12 379.161Z" fill="#061178"/>
<path fill-rule="evenodd" clip-rule="evenodd" d="M1210.93 374.417C1202.91 410.185 1218.59 444.431 1246.51 450.659C1274.43 456.887 1303.23 432.561 1311.24 396.793C1319.26 361.025 1303.59 326.779 1275.67 320.551C1247.75 314.323 1218.95 338.649 1210.93 374.417ZM1217.25 375.828C1224.56 343.227 1250.26 321.517 1274.25 326.868C1298.24 332.219 1312.23 362.783 1304.92 395.383C1297.61 427.983 1271.91 449.694 1247.92 444.343C1223.93 438.992 1209.95 408.428 1217.25 375.828Z" fill="#ADC6FF"/>
<path fill-rule="evenodd" clip-rule="evenodd" d="M1076.93 347.388C1068.91 383.156 1084.58 417.402 1112.5 423.63C1140.42 429.858 1169.22 405.532 1177.24 369.764C1185.25 333.996 1169.58 299.75 1141.66 293.522C1113.74 287.294 1084.94 311.62 1076.93 347.388ZM1083.25 348.798C1090.55 316.198 1116.26 294.488 1140.25 299.838C1164.23 305.189 1178.22 335.754 1170.92 368.354C1163.61 400.954 1137.91 422.665 1113.92 417.314C1089.93 411.963 1075.94 381.399 1083.25 348.798Z" fill="#ADC6FF"/>
<path fill-rule="evenodd" clip-rule="evenodd" d="M1174.75 359.679C1175.12 357.996 1176.74 356.909 1178.42 357.177L1178.61 357.213L1215.98 365.409C1217.73 365.792 1218.83 367.518 1218.45 369.263C1218.08 370.946 1216.46 372.032 1214.77 371.764L1214.59 371.729L1177.22 363.533C1175.47 363.149 1174.36 361.424 1174.75 359.679Z" fill="#ADC6FF"/>
<path fill-rule="evenodd" clip-rule="evenodd" d="M1309.44 383.062C1310.16 381.498 1311.98 380.787 1313.57 381.411L1313.74 381.486L1354.78 400.466C1356.41 401.217 1357.11 403.14 1356.36 404.762C1355.64 406.325 1353.82 407.037 1352.23 406.413L1352.06 406.338L1311.02 387.357C1309.39 386.606 1308.69 384.683 1309.44 383.062Z" fill="#ADC6FF"/>
<rect width="171.036" height="170.879" transform="matrix(-0.897039 0.441952 -0.443024 -0.89651 675.991 738.686)" fill="white"/>
<path fill-rule="evenodd" clip-rule="evenodd" d="M474.837 772.765C476.563 772.788 477.955 774.153 478.031 775.853L478.034 776.043L477.968 780.896L482.83 780.961C484.555 780.984 485.948 782.349 486.024 784.049L486.026 784.239C486.003 785.962 484.636 787.352 482.934 787.428L482.743 787.431L474.643 787.323C472.918 787.3 471.525 785.935 471.449 784.235L471.446 784.045L471.554 775.957C471.578 774.17 473.048 772.741 474.837 772.765Z" fill="#061178"/>
<path fill-rule="evenodd" clip-rule="evenodd" d="M500.024 787.647L517.235 787.877C519.024 787.901 520.494 786.472 520.518 784.685C520.542 782.898 519.111 781.431 517.322 781.407L500.111 781.177C498.321 781.153 496.851 782.582 496.827 784.368C496.803 786.155 498.235 787.623 500.024 787.647ZM534.446 788.107L551.658 788.337C553.447 788.361 554.917 786.932 554.941 785.145C554.965 783.359 553.534 781.891 551.744 781.867L534.533 781.637C532.744 781.613 531.274 783.042 531.25 784.828C531.226 786.615 532.657 788.083 534.446 788.107ZM568.869 788.567L586.08 788.797C587.869 788.821 589.339 787.392 589.363 785.605C589.387 783.819 587.956 782.351 586.167 782.327L568.956 782.097C567.166 782.073 565.696 783.502 565.672 785.289C565.648 787.075 567.079 788.543 568.869 788.567ZM603.291 789.027L620.503 789.257C622.292 789.281 623.762 787.852 623.786 786.065C623.81 784.279 622.379 782.811 620.589 782.787L603.378 782.557C601.589 782.533 600.119 783.962 600.095 785.749C600.071 787.535 601.502 789.003 603.291 789.027Z" fill="#061178"/>
<path fill-rule="evenodd" clip-rule="evenodd" d="M646.027 775.029C647.752 775.052 649.145 776.418 649.221 778.117L649.224 778.307L649.116 786.396C649.092 788.118 647.725 789.509 646.023 789.584L645.832 789.587L637.732 789.48C635.943 789.456 634.512 787.988 634.535 786.201C634.558 784.479 635.926 783.088 637.628 783.013L637.819 783.01L642.679 783.074L642.744 778.221C642.767 776.498 644.134 775.108 645.836 775.032L646.027 775.029Z" fill="#061178"/>
<path fill-rule="evenodd" clip-rule="evenodd" d="M649.439 761.158L649.655 743.972C649.677 742.186 648.245 740.719 646.456 740.697C644.666 740.674 643.198 742.105 643.175 743.891L642.959 761.077C642.937 762.863 644.369 764.33 646.159 764.352C647.948 764.375 649.417 762.945 649.439 761.158ZM649.871 726.787L650.087 709.601C650.109 707.815 648.677 706.348 646.887 706.326C645.098 706.303 643.629 707.734 643.607 709.52L643.391 726.706C643.369 728.492 644.801 729.959 646.59 729.981C648.38 730.004 649.848 728.574 649.871 726.787ZM650.302 692.416L650.518 675.23C650.541 673.444 649.108 671.977 647.319 671.955C645.53 671.932 644.061 673.363 644.039 675.149L643.823 692.335C643.8 694.121 645.233 695.588 647.022 695.61C648.811 695.633 650.28 694.203 650.302 692.416ZM650.734 658.045L650.95 640.859C650.973 639.073 649.54 637.606 647.751 637.584C645.962 637.561 644.493 638.992 644.47 640.778L644.255 657.964C644.232 659.75 645.664 661.217 647.454 661.239C649.243 661.262 650.712 659.832 650.734 658.045Z" fill="#061178"/>
<path fill-rule="evenodd" clip-rule="evenodd" d="M639.978 612.186L648.079 612.294C649.804 612.317 651.197 613.682 651.273 615.382L651.276 615.572L651.168 623.66C651.144 625.447 649.674 626.876 647.884 626.852C646.159 626.829 644.767 625.464 644.691 623.764L644.688 623.574L644.752 618.72L639.892 618.656C638.167 618.633 636.774 617.268 636.698 615.568L636.695 615.378C636.718 613.655 638.086 612.265 639.788 612.189L639.978 612.186Z" fill="#061178"/>
<path fill-rule="evenodd" clip-rule="evenodd" d="M622.805 611.97L605.594 611.74C603.805 611.716 602.335 613.145 602.311 614.932C602.287 616.719 603.718 618.186 605.507 618.21L622.719 618.44C624.508 618.464 625.978 617.035 626.002 615.249C626.026 613.462 624.595 611.994 622.805 611.97ZM588.383 611.51L571.172 611.28C569.382 611.256 567.912 612.685 567.888 614.472C567.864 616.258 569.295 617.726 571.085 617.75L588.296 617.98C590.085 618.004 591.555 616.575 591.579 614.788C591.603 613.002 590.172 611.534 588.383 611.51ZM553.96 611.05L536.749 610.82C534.96 610.796 533.49 612.225 533.466 614.012C533.442 615.798 534.873 617.266 536.662 617.29L553.873 617.52C555.663 617.544 557.133 616.115 557.157 614.328C557.181 612.542 555.75 611.074 553.96 611.05ZM519.538 610.59L502.327 610.36C500.537 610.336 499.067 611.765 499.043 613.551C499.019 615.338 500.45 616.806 502.24 616.83L519.451 617.06C521.24 617.084 522.71 615.655 522.734 613.868C522.758 612.081 521.327 610.614 519.538 610.59Z" fill="#061178"/>
<path fill-rule="evenodd" clip-rule="evenodd" d="M476.998 610.029L485.098 610.137C486.887 610.161 488.318 611.629 488.295 613.415C488.272 615.138 486.904 616.528 485.202 616.604L485.012 616.607L480.15 616.542L480.086 621.396C480.063 623.119 478.696 624.509 476.994 624.585L476.803 624.588C475.078 624.565 473.685 623.199 473.609 621.5L473.606 621.309L473.714 613.221C473.737 611.498 475.105 610.108 476.807 610.032L476.998 610.029Z" fill="#061178"/>
<path fill-rule="evenodd" clip-rule="evenodd" d="M473.391 638.456L473.16 655.641C473.136 657.428 474.568 658.896 476.357 658.92C478.146 658.944 479.616 657.515 479.64 655.728L479.871 638.543C479.894 636.756 478.463 635.288 476.674 635.264C474.885 635.241 473.415 636.67 473.391 638.456ZM472.93 672.827L472.699 690.012C472.675 691.799 474.107 693.267 475.896 693.291C477.685 693.314 479.155 691.885 479.179 690.099L479.41 672.913C479.434 671.127 478.002 669.659 476.213 669.635C474.424 669.611 472.954 671.04 472.93 672.827ZM472.469 707.198L472.239 724.383C472.215 726.169 473.646 727.637 475.435 727.661C477.224 727.685 478.694 726.256 478.718 724.469L478.949 707.284C478.973 705.498 477.542 704.03 475.752 704.006C473.963 703.982 472.493 705.411 472.469 707.198ZM472.008 741.568L471.778 758.753C471.754 760.54 473.185 762.008 474.974 762.032C476.763 762.056 478.233 760.627 478.257 758.84L478.488 741.655C478.512 739.868 477.081 738.4 475.291 738.376C473.502 738.352 472.032 739.781 472.008 741.568Z" fill="#061178"/>
<path fill-rule="evenodd" clip-rule="evenodd" d="M515.804 723.59L517.063 723.587C518.852 723.608 520.286 725.073 520.265 726.86C520.245 728.583 518.879 729.975 517.177 730.054L516.919 730.057L516.247 730.057L515.801 730.061C515.094 730.069 514.286 730.086 513.382 730.113L512.003 730.159C509.884 730.239 507.54 730.365 504.986 730.545C496.291 731.158 486.691 732.285 476.418 734.051C447.489 739.026 418.645 748.064 391.745 762.157C361.698 777.9 335.884 799.077 315.559 826.39C291.888 858.199 276.233 897.585 269.879 945.308C269.643 947.08 268.014 948.325 266.24 948.089C264.466 947.854 263.22 946.227 263.455 944.456C269.952 895.659 286.019 855.236 310.357 822.531C331.291 794.401 357.86 772.603 388.734 756.428C416.283 741.994 445.763 732.757 475.319 727.674C485.812 725.87 495.626 724.718 504.53 724.09C507.449 723.885 510.107 723.748 512.484 723.668L513.93 723.625C514.642 723.607 515.268 723.596 515.804 723.59Z" fill="#061178"/>
<path fill-rule="evenodd" clip-rule="evenodd" d="M516.593 734.804C521.127 734.804 524.802 731.134 524.802 726.608C524.802 722.081 521.127 718.412 516.593 718.412C512.06 718.412 508.385 722.081 508.385 726.608C508.385 731.134 512.06 734.804 516.593 734.804Z" fill="#061178"/>
<path fill-rule="evenodd" clip-rule="evenodd" d="M440.34 1034.18H370.353C366.032 1034.18 362.576 1030.73 362.576 1026.41V1022.1C362.576 1017.78 366.032 1014.33 370.353 1014.33H440.34C444.661 1014.33 448.117 1017.78 448.117 1022.1V1026.41C448.117 1030.73 444.661 1034.18 440.34 1034.18Z" fill="#061178"/>
<rect width="121.493" height="121.347" transform="matrix(0.949005 -0.31526 0.316116 0.94872 293.054 518.711)" fill="white"/>
<path fill-rule="evenodd" clip-rule="evenodd" d="M407.293 477.338L292.03 515.605C290.332 516.169 289.415 518 289.98 519.697L328.375 634.855C328.94 636.551 330.774 637.469 332.472 636.906L447.735 598.638C449.432 598.075 450.35 596.243 449.785 594.547L411.39 479.388C410.825 477.692 408.99 476.774 407.293 477.338ZM406.267 484.5L442.613 593.517L333.497 629.743L297.15 520.726L406.267 484.5Z" fill="#061178"/>
<path fill-rule="evenodd" clip-rule="evenodd" d="M405.479 478.942C406.286 477.347 408.235 476.708 409.832 477.514C411.37 478.291 412.021 480.124 411.346 481.683L411.262 481.861L334.038 634.352C333.23 635.946 331.281 636.585 329.684 635.779C328.146 635.002 327.496 633.169 328.171 631.61L328.255 631.432L405.479 478.942Z" fill="#061178"/>
<path fill-rule="evenodd" clip-rule="evenodd" d="M290.23 517.345C291.002 515.807 292.836 515.15 294.399 515.818L294.578 515.901L448.163 592.685C449.763 593.485 450.41 595.429 449.609 597.026C448.838 598.565 447.004 599.222 445.44 598.554L445.261 598.471L291.677 521.687C290.077 520.887 289.429 518.943 290.23 517.345Z" fill="#061178"/>
<rect width="140.184" height="137.613" transform="matrix(0.985053 0.172249 -0.172754 0.984965 429.935 409.28)" fill="#1D39C4"/>
<path fill-rule="evenodd" clip-rule="evenodd" d="M536.902 504.08L504.674 498.45C503.499 498.245 502.38 499.03 502.174 500.204L496.522 532.397C496.316 533.57 497.101 534.688 498.276 534.893L530.504 540.523C531.679 540.728 532.798 539.943 533.004 538.77L538.656 506.577C538.862 505.403 538.077 504.285 536.902 504.08ZM534.028 507.957L529.122 535.901L501.148 531.014L506.054 503.071L534.028 507.957Z" fill="white"/>
<path fill-rule="evenodd" clip-rule="evenodd" d="M535.335 504.517C536.312 503.834 537.659 504.071 538.343 505.047C538.993 505.974 538.811 507.234 537.953 507.944L537.812 508.051L500.01 534.472C499.033 535.156 497.686 534.918 497.002 533.942C496.352 533.015 496.534 531.755 497.392 531.046L497.533 530.939L535.335 504.517Z" fill="white"/>
<path fill-rule="evenodd" clip-rule="evenodd" d="M546.076 450.077L444.167 432.272C442.992 432.067 441.872 432.852 441.666 434.026L436.275 464.74C436.068 465.914 436.854 467.032 438.029 467.238L539.939 485.043C541.114 485.248 542.233 484.463 542.439 483.289L547.831 452.575C548.037 451.401 547.251 450.283 546.076 450.077ZM543.202 453.956L538.557 480.421L440.901 463.358L445.547 436.893L543.202 453.956Z" fill="white"/>
<path fill-rule="evenodd" clip-rule="evenodd" d="M426.441 521.437C426.639 520.318 427.67 519.554 428.785 519.667L428.944 519.69L480.787 528.856C481.962 529.064 482.746 530.183 482.538 531.356C482.339 532.476 481.309 533.24 480.194 533.126L480.034 533.104L428.191 523.937C427.016 523.73 426.233 522.61 426.441 521.437Z" fill="white"/>
<path fill-rule="evenodd" clip-rule="evenodd" d="M428.6 508.932C428.796 507.812 429.825 507.046 430.94 507.157L431.1 507.179L482.943 516.238C484.118 516.443 484.904 517.561 484.698 518.734C484.502 519.854 483.473 520.62 482.358 520.509L482.198 520.487L430.355 511.428C429.18 511.223 428.394 510.105 428.6 508.932Z" fill="white"/>
<path fill-rule="evenodd" clip-rule="evenodd" d="M430.76 496.314C430.957 495.194 431.985 494.428 433.101 494.54L433.26 494.561L485.103 503.62C486.278 503.826 487.064 504.943 486.859 506.117C486.662 507.237 485.633 508.003 484.518 507.891L484.358 507.869L432.516 498.811C431.341 498.605 430.555 497.488 430.76 496.314Z" fill="white"/>
<path fill-rule="evenodd" clip-rule="evenodd" d="M433.029 483.692C433.227 482.573 434.258 481.809 435.372 481.922L435.532 481.945L487.375 491.111C488.55 491.319 489.334 492.438 489.125 493.611C488.927 494.731 487.897 495.495 486.782 495.381L486.622 495.359L434.779 486.192C433.604 485.984 432.821 484.865 433.029 483.692Z" fill="white"/>
<path fill-rule="evenodd" clip-rule="evenodd" d="M545.497 450.113C546.681 449.971 547.757 450.815 547.899 451.998C548.034 453.127 547.27 454.157 546.17 454.371L546.011 454.396L438.761 467.23C437.577 467.371 436.501 466.527 436.359 465.345C436.224 464.216 436.988 463.186 438.088 462.972L438.247 462.946L545.497 450.113Z" fill="white"/>
<path fill-rule="evenodd" clip-rule="evenodd" d="M843.526 739.98H766.734C755.548 739.98 746.429 749.086 746.429 760.255V762.196C746.429 773.365 755.548 782.471 766.734 782.471H843.526C854.712 782.471 863.831 773.365 863.831 762.196V760.255C863.831 749.086 854.712 739.98 843.526 739.98ZM766.734 746.451H843.526C851.133 746.451 857.351 752.659 857.351 760.255V762.196C857.351 769.792 851.133 776 843.526 776H766.734C759.127 776 752.909 769.792 752.909 762.196V760.255C752.909 752.659 759.127 746.451 766.734 746.451Z" fill="#061178"/>
<path fill-rule="evenodd" clip-rule="evenodd" d="M840.718 788.402C856.167 788.402 868.691 775.897 868.691 760.47C868.691 745.044 856.167 732.539 840.718 732.539C825.268 732.539 812.744 745.044 812.744 760.47C812.744 775.897 825.268 788.402 840.718 788.402Z" fill="white"/>
<path fill-rule="evenodd" clip-rule="evenodd" d="M885 805.441C886.79 805.441 888.24 806.89 888.24 808.677C888.24 810.4 886.891 811.808 885.191 811.906L885 811.912H800.972C799.182 811.912 797.731 810.463 797.731 808.677C797.731 806.954 799.08 805.545 800.781 805.447L800.972 805.441H885Z" fill="#061178"/>
<path fill-rule="evenodd" clip-rule="evenodd" d="M1541.14 1033.21C1542.92 1033.21 1544.38 1034.65 1544.38 1036.44C1544.38 1038.16 1543.03 1039.57 1541.33 1039.67L1541.14 1039.68H58.9716C57.1821 1039.68 55.7314 1038.23 55.7314 1036.44C55.7314 1034.72 57.0804 1033.31 58.7812 1033.21L58.9716 1033.21H1541.14Z" fill="#061178"/>
</svg>
