<svg width="1600" height="1200" viewBox="0 0 1600 1200" fill="none" xmlns="http://www.w3.org/2000/svg">
<path fill-rule="evenodd" clip-rule="evenodd" d="M283.256 798.727C324.11 919.751 393.207 1033.53 525.348 1098.29C663.039 1165.76 826.442 1177.65 978.51 1139.43C1151.82 1095.87 1328.3 1022.02 1386.54 881.844C1447.49 735.137 1383.52 571.664 1265.68 448.244C1154.05 331.319 978.915 279.556 798.984 266.434C611.465 252.759 397.651 256.805 281.693 376.487C169.872 491.9 234.91 655.507 283.256 798.727Z" fill="#D6E4FF"/>
<path fill-rule="evenodd" clip-rule="evenodd" d="M804.095 664.799C790.279 677.074 553.234 840.101 553.234 840.101L406.121 636.925C406.121 636.925 382.199 605.982 363.266 602.402C337.682 597.671 266.172 612.119 268.091 645.748C267.451 656.36 331.413 647.026 338.577 698.172L360.324 718.119C360.324 718.119 422.879 855.573 452.942 922.574C509.484 1045.07 629.861 1005.05 663.889 980.752C737.446 928.2 858.846 850.586 858.846 850.586L804.095 664.799Z" fill="white"/>
<path fill-rule="evenodd" clip-rule="evenodd" d="M303.35 606.331C278.694 615.042 263.58 628.38 264.235 645.442L264.25 645.77L264.261 645.517C264.075 648.607 265.892 650.83 268.857 652.344C270.641 653.256 272.919 653.983 276.238 654.788L277.704 655.129C280.394 655.732 286.777 657.11 288.756 657.571C293.916 658.773 298.242 659.99 302.356 661.472C320.929 668.166 332.07 679.37 334.778 698.703L334.824 698.966C334.989 699.745 335.393 700.456 335.984 700.998L357.155 720.417L380.388 771.526C385.899 783.658 391.382 795.736 396.768 807.608L423.417 866.428C433.818 889.423 442.614 908.927 449.441 924.143C475.447 980.482 516.689 1007.8 566.65 1010.54C603.319 1012.55 643.323 1000.15 666.121 983.873L670.793 980.547C686.242 969.585 704.267 957.154 724.436 943.513L730.989 939.09C732.667 937.959 734.358 936.822 736.06 935.678L742.927 931.071C767.097 914.885 792.638 898.062 818.242 881.395L829.441 874.118C834.865 870.599 840.05 867.246 844.954 864.082L860.915 853.817C862.354 852.898 863.011 851.139 862.529 849.502L807.777 663.715C806.982 661.017 803.649 660.064 801.546 661.932L801.159 662.266C794.201 668.127 750.591 698.863 682.731 745.969L663.965 758.984C643.459 773.195 622.064 787.987 600.549 802.835L554.147 834.816L409.231 634.676L408.825 634.153L408.16 633.322L407.905 633.008C406.913 631.787 405.776 630.429 404.512 628.968C400.901 624.796 396.98 620.623 392.878 616.717C386.838 610.967 380.924 606.293 375.268 603.068C371.331 600.823 367.568 599.311 363.981 598.632C349.73 595.997 324.564 598.973 304.108 606.065L303.35 606.331ZM362.57 606.173C365.22 606.674 368.214 607.877 371.465 609.731C376.503 612.604 381.957 616.914 387.584 622.272C391.492 625.992 395.247 629.989 398.707 633.987L399.714 635.16C400.202 635.734 400.666 636.287 401.104 636.817L402.186 638.139L403.086 639.27L550.127 842.35C551.302 843.972 553.516 844.408 555.21 843.39L556.133 842.764L594.71 816.185L625.237 795.112C640.98 784.234 656.527 773.476 671.57 763.049L707.887 737.832C756.034 704.335 788.707 681.303 801.412 671.775L802.017 671.32L854.352 848.908L840.791 857.636C833.651 862.243 825.917 867.251 817.714 872.584L810.392 877.351C784.77 894.048 759.273 910.865 735.206 927.009L731.777 929.311C729.22 931.029 726.689 932.733 724.187 934.422L715.507 940.293C695.115 954.123 677.012 966.661 661.659 977.631C640.243 992.92 601.947 1004.79 567.07 1002.88C519.915 1000.29 481.211 974.657 456.428 920.966L436.794 877.387L418.013 835.882L397.252 790.103L363.819 716.53L363.68 716.254C363.48 715.895 363.224 715.57 362.92 715.292L342.17 696.26L342.058 695.579C338.403 674.332 325.339 661.599 304.959 654.255C300.821 652.764 296.539 651.537 291.573 650.352L290.011 649.987C287.202 649.348 280.055 647.808 278.569 647.457L277.638 647.231C275.099 646.602 273.41 646.054 272.349 645.512L272.067 645.36L271.91 645.265L271.923 645.528C271.181 632.512 284.152 621.105 306.624 613.313C325.909 606.627 349.766 603.805 362.57 606.173Z" fill="#061178"/>
<path fill-rule="evenodd" clip-rule="evenodd" d="M297.129 425.565C296.234 421.601 289.454 419.172 285.616 418.916C274.743 412.267 249.414 404.212 204 428.761C159.866 452.672 127.757 451.393 108.697 432.342C105.115 428.761 98.9743 432.086 100.253 437.073L114.709 497.169C115.86 502.156 118.419 506.759 121.873 510.467C136.2 525.81 171.763 535.656 223.061 507.909C249.669 493.461 274.103 492.438 290.989 494.995L362.499 822.583L383.478 818.236L297.129 425.565Z" fill="#ADC6FF"/>
<path fill-rule="evenodd" clip-rule="evenodd" d="M325.273 692.929C325.273 692.929 314.015 688.965 315.806 706.354C317.597 723.616 333.844 736.658 354.567 724.128C375.163 711.597 372.221 704.053 361.347 699.066C350.474 694.079 331.157 704.053 331.157 704.053" fill="white"/>
<path fill-rule="evenodd" clip-rule="evenodd" d="M319.217 689.259C321.298 688.557 323.382 688.568 325.335 688.982C325.851 689.091 326.262 689.21 326.549 689.311C328.548 690.015 329.598 692.205 328.893 694.203C328.214 696.13 326.152 697.174 324.213 696.615L323.963 696.538C323.922 696.527 323.846 696.509 323.743 696.487C323.021 696.334 322.258 696.33 321.671 696.528C320.028 697.082 318.957 699.479 319.625 705.959C321.352 722.61 336.048 730.843 352.573 720.851L353.575 720.233C361.756 715.124 365.632 711.004 365.948 708.32C366.148 706.623 364.326 704.652 359.748 702.553C357.452 701.5 354.254 701.247 350.376 701.768C347.126 702.205 343.583 703.156 339.961 704.468C338.133 705.13 336.405 705.841 334.836 706.55L334.212 706.837C333.914 706.975 333.64 707.106 333.39 707.227L332.92 707.461C331.036 708.433 328.721 707.696 327.749 705.813C326.776 703.931 327.514 701.617 329.397 700.645L329.702 700.49C330.162 700.261 330.827 699.943 331.672 699.561C333.412 698.774 335.321 697.989 337.346 697.255C341.444 695.77 345.496 694.683 349.353 694.165C354.545 693.467 359.133 693.83 362.949 695.58C370.213 698.911 374.268 703.297 373.571 709.216C372.882 715.067 367.293 720.877 356.555 727.41C335.025 740.428 314.278 728.806 311.99 706.747C310.993 697.064 313.639 691.14 319.217 689.259Z" fill="#061178"/>
<path fill-rule="evenodd" clip-rule="evenodd" d="M311.202 670.936C311.202 670.936 295.083 672.087 298.154 691.778C301.224 711.469 323.61 720.292 347.021 703.797C370.303 687.303 366.465 678.864 353.417 674.261C340.369 669.657 318.494 683.083 318.494 683.083" fill="white"/>
<path fill-rule="evenodd" clip-rule="evenodd" d="M310.928 667.11C313.042 666.959 314.878 668.55 315.029 670.663C315.175 672.701 313.7 674.48 311.699 674.74L311.475 674.762C311.275 674.777 310.768 674.854 310.065 675.036C308.856 675.35 307.647 675.845 306.541 676.548C302.658 679.015 300.735 683.426 301.945 691.187C304.722 708.999 324.688 714.839 344.801 700.668C355.004 693.439 359.776 687.836 360.013 684.312C360.164 682.07 357.792 679.872 352.139 677.878C349.409 676.915 345.777 676.898 341.467 677.773C337.759 678.525 333.733 679.895 329.602 681.705C327.263 682.729 325.04 683.829 323.011 684.928L322.2 685.372C321.943 685.516 321.698 685.654 321.467 685.786L320.501 686.352C318.695 687.461 316.331 686.896 315.222 685.09C314.113 683.285 314.678 680.923 316.485 679.814L316.797 679.625C317.376 679.28 318.243 678.784 319.356 678.182C321.562 676.987 323.974 675.794 326.521 674.678C331.113 672.666 335.635 671.128 339.939 670.254C345.494 669.127 350.46 669.15 354.693 670.643C363.222 673.652 368.118 678.188 367.671 684.827C367.231 691.367 361.19 698.46 349.231 706.933C324.813 724.137 298.096 716.323 294.361 692.369C292.687 681.635 295.928 674.2 302.424 670.073C304.257 668.908 306.198 668.113 308.138 667.61C309.325 667.302 310.287 667.156 310.928 667.11Z" fill="#061178"/>
<path fill-rule="evenodd" clip-rule="evenodd" d="M321.819 634.75C321.819 634.75 282.035 651.501 285.233 672.215C288.431 692.801 312.864 701.368 337.17 684.106C361.476 666.844 357.51 658.15 343.95 653.291C330.39 648.432 307.492 662.497 307.492 662.497" fill="white"/>
<path fill-rule="evenodd" clip-rule="evenodd" d="M320.329 631.216C322.282 630.393 324.533 631.31 325.356 633.262C326.149 635.145 325.325 637.303 323.514 638.193L322.433 638.671L321.841 638.94C320.63 639.496 319.277 640.149 317.818 640.893C313.648 643.019 309.48 645.44 305.609 648.102C294.102 656.013 287.877 664.193 289.025 671.627C291.9 690.136 313.796 696.001 334.947 680.98C345.649 673.379 350.666 667.506 350.931 663.775C351.103 661.361 348.604 659.034 342.655 656.902C339.773 655.869 335.932 655.853 331.37 656.788C327.509 657.581 323.321 659.01 319.023 660.896C316.578 661.969 314.253 663.121 312.13 664.272C311.687 664.512 311.272 664.742 310.888 664.959L309.745 665.619C309.635 665.684 309.553 665.734 309.501 665.766C307.695 666.875 305.331 666.311 304.222 664.506C303.112 662.701 303.676 660.339 305.482 659.229L306.204 658.798C306.709 658.504 307.356 658.136 308.131 657.713L308.471 657.528C310.771 656.281 313.285 655.036 315.938 653.872C320.693 651.785 325.374 650.187 329.827 649.273C335.648 648.079 340.84 648.102 345.245 649.68C354.063 652.84 359.073 657.505 358.588 664.32C358.108 671.052 351.834 678.398 339.393 687.234C314 705.267 285.289 697.576 281.44 672.8C279.697 661.517 287.539 651.215 301.259 641.781C305.432 638.912 309.881 636.327 314.33 634.059C315.886 633.265 317.334 632.567 318.637 631.969L319.751 631.466C319.991 631.36 320.185 631.276 320.329 631.216Z" fill="#061178"/>
<path fill-rule="evenodd" clip-rule="evenodd" d="M268.091 645.747C271.673 669.018 299.304 678.608 326.808 659.301C354.312 639.865 349.707 629.892 334.356 624.521C319.005 619.151 298.921 639.098 298.921 639.098" fill="white"/>
<path fill-rule="evenodd" clip-rule="evenodd" d="M324.613 620.111C328.495 619.48 332.193 619.7 335.624 620.901C345.41 624.324 350.971 629.456 350.482 636.888C349.993 644.337 342.977 652.573 329.014 662.439C300.517 682.445 268.538 673.873 264.298 646.33C263.976 644.236 265.413 642.277 267.508 641.955C269.603 641.633 271.562 643.069 271.884 645.163C275.159 666.44 300.344 673.19 324.593 656.168L325.754 655.34C337.157 647.115 342.542 640.666 342.823 636.385C343.023 633.352 339.994 630.558 333.088 628.142C330.943 627.391 328.527 627.248 325.844 627.683C321.185 628.44 315.98 630.89 310.662 634.519C308.306 636.126 306.09 637.854 304.088 639.581C303.529 640.063 303.021 640.516 302.567 640.932L301.673 641.772C301.655 641.79 301.639 641.805 301.626 641.819C300.123 643.312 297.693 643.304 296.199 641.801C294.705 640.299 294.713 637.87 296.216 636.377L296.663 635.943C297.233 635.4 298.047 634.658 299.074 633.772C301.283 631.867 303.723 629.964 306.334 628.182C312.499 623.976 318.655 621.079 324.613 620.111Z" fill="#061178"/>
<path fill-rule="evenodd" clip-rule="evenodd" d="M340.625 610.456C340.625 610.456 309.283 573.759 321.308 553.173C333.333 532.715 339.857 569.668 351.114 572.097C362.372 574.527 406.122 636.796 406.122 636.796" fill="white"/>
<path fill-rule="evenodd" clip-rule="evenodd" d="M317.998 551.23C321.872 544.639 326.375 541.833 331.383 543.753C334.677 545.016 337.169 547.866 340.464 553.137L340.785 553.654C341.008 554.015 341.236 554.389 341.481 554.795L343.743 558.588C347.623 565.029 349.909 567.809 351.792 568.316L351.923 568.348C357.472 569.545 366.514 578.84 379.783 595.31L380.302 595.956C381.872 597.911 383.482 599.945 385.126 602.051C390.13 608.46 395.259 615.276 400.283 622.132L401.954 624.418C403.466 626.492 404.881 628.452 406.183 630.266L409.261 634.592C410.48 636.326 410.061 638.718 408.326 639.936C406.592 641.153 404.198 640.735 402.98 639.001L401.021 636.241L398.81 633.158C398.037 632.085 397.228 630.966 396.386 629.809L395.75 628.934C390.242 621.376 384.577 613.818 379.075 606.771C377.776 605.108 376.501 603.491 375.25 601.924L373.435 599.665C362.186 585.752 353.409 576.702 350.417 575.875L350.303 575.847C345.486 574.807 342.573 571.483 337.509 563.113L335.407 559.589C334.968 558.854 334.601 558.247 334.252 557.681L333.734 556.853C331.448 553.252 329.784 551.357 328.634 550.916C328.392 550.823 328.288 550.834 327.912 551.068C327.033 551.616 325.9 552.932 324.621 555.108C321.848 559.856 321.708 566.22 323.971 573.935C325.72 579.895 328.812 586.352 332.866 592.979C335.209 596.811 337.725 600.457 340.24 603.791L340.977 604.758C341.337 605.226 341.684 605.671 342.016 606.09L342.661 606.896C343.091 607.428 343.392 607.79 343.542 607.966C344.918 609.577 344.727 611.999 343.115 613.374C341.565 614.697 339.266 614.571 337.868 613.127L337.705 612.947C337.535 612.748 337.249 612.406 336.862 611.93L336.69 611.717C335.91 610.752 335.043 609.644 334.112 608.41C331.455 604.888 328.8 601.04 326.317 596.981C321.94 589.825 318.57 582.788 316.606 576.094C313.803 566.54 313.988 558.095 317.998 551.23Z" fill="#061178"/>
<path fill-rule="evenodd" clip-rule="evenodd" d="M1242.88 876.031C1171.49 821.561 932.915 675.796 905.667 660.196C870.871 640.249 780.685 652.524 658.645 725.407L672.972 876.159L488.505 1117.06H1244.67L1353.53 976.916L1242.88 876.031Z" fill="#061178"/>
<path fill-rule="evenodd" clip-rule="evenodd" d="M1508.96 1117.06C1488.75 1075.24 1342.27 976.916 1342.27 976.916L1226.12 1117.06H1508.96Z" fill="white"/>
<path fill-rule="evenodd" clip-rule="evenodd" d="M1339.32 974.468L1223.16 1114.61C1221.09 1117.11 1222.87 1120.89 1226.12 1120.89H1508.96C1511.79 1120.89 1513.65 1117.93 1512.42 1115.39C1505.45 1100.97 1484.68 1080.11 1453.03 1054.04L1452.06 1053.25C1444.87 1047.35 1437.2 1041.24 1429.12 1034.98C1410.59 1020.62 1390.74 1006.06 1370.89 992.054L1365.78 988.458C1361.6 985.528 1357.63 982.771 1353.91 980.209L1348.54 976.531L1344.41 973.731C1342.78 972.633 1340.58 972.952 1339.32 974.468ZM1234.28 1113.22L1343.01 982.044L1346.05 984.123L1350.67 987.298C1355.55 990.663 1360.84 994.354 1366.46 998.321C1386.22 1012.27 1405.98 1026.76 1424.42 1041.04C1432.45 1047.26 1440.06 1053.32 1447.19 1059.18L1449.94 1061.44C1475.71 1082.79 1493.88 1100.53 1502.31 1113.22H1234.28Z" fill="#061178"/>
<path fill-rule="evenodd" clip-rule="evenodd" d="M1010.05 675.412L953.255 743.308C922.553 780.005 926.391 835.114 962.849 866.186C963.489 866.697 964.128 867.208 964.768 867.72C994.191 891.63 1033.08 881.913 1058.03 871.3C1072.61 865.163 1085.27 854.933 1094.61 842.147L1148.98 767.474L1010.05 675.412Z" fill="white"/>
<path fill-rule="evenodd" clip-rule="evenodd" d="M1007.11 672.952L950.31 740.848C918.12 779.323 922.458 836.805 960.358 869.105L962.369 870.715C976.691 882.354 993.964 887.184 1013.25 886.288C1028.4 885.585 1044.06 881.41 1059.53 874.83C1074.61 868.482 1087.87 857.876 1097.71 844.409L1152.08 769.732C1153.37 767.966 1152.92 765.484 1151.1 764.277L1012.17 672.215C1010.54 671.135 1008.36 671.453 1007.11 672.952ZM1010.79 680.505L1143.52 768.457L1091.51 839.89C1082.49 852.238 1070.33 861.958 1056.53 867.765C1041.83 874.021 1027.02 877.969 1012.9 878.625C995.671 879.425 980.468 875.266 967.818 865.25L965.245 863.191C930.664 833.717 926.689 781.04 956.197 745.769L1010.79 680.505Z" fill="#061178"/>
<path fill-rule="evenodd" clip-rule="evenodd" d="M1222.92 665.822C1222.92 665.822 1261.68 681.933 1240.96 714.154C1220.23 746.376 1185.05 709.168 1185.05 709.168L1210.38 661.73L1222.92 665.822Z" fill="white"/>
<path fill-rule="evenodd" clip-rule="evenodd" d="M1207 659.924L1181.67 707.362C1180.89 708.817 1181.13 710.604 1182.27 711.803L1182.9 712.448C1183.51 713.067 1184.37 713.883 1185.43 714.843C1187.89 717.067 1190.63 719.289 1193.59 721.368C1202.58 727.678 1211.7 731.401 1220.53 731.108C1229.83 730.801 1237.92 725.964 1244.19 716.229C1256 697.855 1251.62 682.18 1237.44 670.396C1234.6 668.037 1231.58 666.025 1228.55 664.348L1227.79 663.933C1226.32 663.144 1225.15 662.594 1224.39 662.28C1224.3 662.242 1224.21 662.207 1224.11 662.176L1211.57 658.084C1209.8 657.506 1207.87 658.282 1207 659.924ZM1212.25 666.375L1221.56 669.413L1222.13 669.673L1222.31 669.757C1223.06 670.115 1223.91 670.549 1224.83 671.058C1227.46 672.515 1230.09 674.266 1232.53 676.295C1243.98 685.811 1247.21 697.342 1237.73 712.081C1232.8 719.747 1226.99 723.219 1220.27 723.441C1213.43 723.667 1205.76 720.531 1198 715.088C1195.31 713.204 1192.82 711.178 1190.58 709.155L1189.79 708.435L1212.25 666.375Z" fill="#061178"/>
<path fill-rule="evenodd" clip-rule="evenodd" d="M1155.12 511.874C1143.09 505.992 1063.27 498.448 1045.49 530.542C1014.66 586.291 997.26 654.443 992.143 686.664C987.026 718.886 1127.36 758.268 1136.06 758.652C1144.76 759.035 1157.42 753.665 1157.42 753.665L1211.53 670.681C1211.41 670.681 1262.06 564.554 1155.12 511.874Z" fill="white"/>
<path fill-rule="evenodd" clip-rule="evenodd" d="M1102.24 503.137C1073.13 504.846 1051.33 512.716 1042.4 528.214L1042.13 528.686C1015.84 576.231 995.615 640.342 988.354 686.062C985.67 702.963 1011.28 719.913 1056.15 737.631L1057.52 738.168C1087.46 749.9 1128.75 762.168 1135.89 762.483C1138.16 762.583 1140.67 762.361 1143.41 761.871C1146.02 761.402 1148.77 760.702 1151.58 759.831C1153.11 759.354 1154.59 758.85 1155.98 758.341L1156.8 758.035C1157.78 757.664 1158.51 757.371 1158.92 757.196C1159.62 756.898 1160.22 756.398 1160.64 755.759L1214.75 672.775L1214.86 672.591C1214.93 672.468 1215 672.343 1215.05 672.217L1215.14 671.995L1215.56 671.045C1215.99 670.031 1216.45 668.912 1216.95 667.634C1218.39 663.925 1219.82 659.755 1221.16 655.148C1228.77 628.907 1230.07 601.415 1220.99 575.529C1211.32 547.947 1190.52 525.036 1156.82 508.432C1148.95 504.586 1124 501.859 1102.24 503.137ZM1048.06 533.832L1048.85 532.4C1055.94 519.588 1075.68 512.381 1102.69 510.796C1123.25 509.588 1147.03 512.188 1153.43 515.318C1185.36 531.043 1204.75 552.412 1213.75 578.067C1222.22 602.22 1220.99 628.17 1213.79 653.013C1212.62 657.026 1211.39 660.684 1210.14 663.964L1209.8 664.849C1209.41 665.846 1209.05 666.735 1208.71 667.547L1208.14 668.861L1154.87 750.557L1154.09 750.858C1152.6 751.419 1150.99 751.981 1149.3 752.504C1146.78 753.287 1144.33 753.912 1142.06 754.319C1139.83 754.717 1137.86 754.891 1136.23 754.819C1130.2 754.553 1089.49 742.454 1060.32 731.025L1057.86 730.051C1017.92 714.149 994.172 698.361 995.934 687.265C1002.99 642.827 1022.62 580.385 1048.06 533.832Z" fill="#061178"/>
<path fill-rule="evenodd" clip-rule="evenodd" d="M1198.87 664.927C1189.79 668.891 1157.55 699.322 1146.42 715.05C1146.42 715.05 1108.94 683.339 1047.28 658.022C1047.28 658.022 1013.25 645.364 998.157 644.085C998.157 644.085 976.793 706.866 991.633 749.573C1006.47 792.28 1067.88 806.217 1102.67 797.65C1137.47 789.211 1145.53 781.795 1159.98 763.766C1174.31 745.737 1221.13 675.667 1221.13 675.667L1198.87 664.927Z" fill="#597EF7"/>
<path fill-rule="evenodd" clip-rule="evenodd" d="M1211.41 685.002C1211.41 685.002 1240.96 663.904 1259.63 637.181C1277.16 612.119 1275.75 577.979 1255.03 555.347C1237.63 536.424 1216.78 533.355 1216.78 533.355C1216.78 533.355 1251.06 499.215 1224.71 454.207C1215.5 438.352 1199.89 426.972 1181.98 422.88C1138.23 412.779 1115.21 446.024 1115.21 446.024C1115.21 446.024 1090.9 348.463 982.421 374.164C971.42 376.721 956.964 388.101 949.289 396.412C902.596 446.279 988.562 542.05 1041.14 561.613C1098.96 583.094 1132.6 577.34 1156.53 570.563C1139.64 573.248 1121.35 664.671 1211.41 685.002Z" fill="#061178"/>
<path fill-rule="evenodd" clip-rule="evenodd" d="M1051.67 631.618C1052.76 629.805 1055.12 629.221 1056.94 630.316C1058.68 631.37 1059.29 633.595 1058.35 635.378L1058.24 635.582L1033.29 676.908L1050.04 683.891C1051.92 684.677 1052.85 686.794 1052.18 688.697L1052.1 688.908C1051.31 690.793 1049.2 691.72 1047.29 691.052L1047.08 690.971L1026.23 682.276C1024.14 681.404 1023.27 678.933 1024.31 676.957L1024.42 676.754L1051.67 631.618Z" fill="#061178"/>
<path fill-rule="evenodd" clip-rule="evenodd" d="M1039.25 630.727C1041.12 625.997 1040.18 621.196 1037.16 620.005C1034.13 618.814 1030.17 621.683 1028.3 626.413C1026.44 631.143 1027.38 635.943 1030.4 637.134C1033.42 638.326 1037.39 635.457 1039.25 630.727Z" fill="#061178"/>
<path fill-rule="evenodd" clip-rule="evenodd" d="M1092.67 646.241C1094.54 641.511 1093.6 636.711 1090.58 635.519C1087.55 634.328 1083.59 637.197 1081.73 641.927C1079.86 646.657 1080.8 651.457 1083.82 652.649C1086.85 653.84 1090.81 650.971 1092.67 646.241Z" fill="#061178"/>
<path fill-rule="evenodd" clip-rule="evenodd" d="M1099.95 596.936C1100.43 594.871 1102.49 593.584 1104.56 594.061C1111.74 595.716 1117.35 599.329 1121.52 604.283C1123.58 606.733 1125.16 609.35 1126.31 611.974C1127.02 613.581 1127.44 614.874 1127.64 615.701C1128.13 617.762 1126.86 619.832 1124.8 620.325C1122.81 620.8 1120.81 619.636 1120.23 617.705L1120.12 617.304C1120.1 617.211 1120.06 617.087 1120.01 616.935C1119.83 616.381 1119.59 615.75 1119.29 615.064C1118.41 613.074 1117.21 611.078 1115.65 609.222C1112.51 605.497 1108.33 602.803 1102.83 601.536C1100.77 601.06 1099.48 599 1099.95 596.936Z" fill="#061178"/>
<path fill-rule="evenodd" clip-rule="evenodd" d="M1041.67 574.547C1046.15 573.654 1050.71 574.597 1055.11 576.651C1057.02 577.544 1058.49 578.446 1059.39 579.099C1061.1 580.347 1061.48 582.747 1060.23 584.459C1059.03 586.105 1056.76 586.516 1055.07 585.436L1054.55 585.085C1054.44 585.01 1054.3 584.921 1054.13 584.82C1053.46 584.407 1052.7 583.991 1051.86 583.602C1048.81 582.177 1045.78 581.551 1043.18 582.071C1041.15 582.475 1039.36 583.573 1037.75 585.601C1036.44 587.263 1034.02 587.545 1032.36 586.231C1030.7 584.917 1030.42 582.505 1031.73 580.843C1034.46 577.388 1037.86 575.309 1041.67 574.547Z" fill="#061178"/>
<path fill-rule="evenodd" clip-rule="evenodd" d="M1071.84 714.466C1071.58 714.584 1071.22 714.746 1070.74 714.942L1070.5 715.042C1069.02 715.639 1067.28 716.241 1065.3 716.806C1060.08 718.292 1054.18 719.244 1047.7 719.398C1045.49 719.451 1043.78 721.351 1043.97 723.552C1044.03 724.26 1044.19 725.385 1044.5 726.798C1045.01 729.136 1045.78 731.48 1046.87 733.701L1047.07 734.099C1050.52 740.814 1056.28 744.91 1064.42 744.603L1064.68 744.589L1064.48 744.582C1073.88 745.055 1078.41 738.789 1078.9 729.446C1079.06 726.433 1078.81 723.283 1078.28 720.158C1078.18 719.539 1078.07 718.955 1077.96 718.401L1077.79 717.598L1077.65 716.983C1077.17 714.562 1074.57 713.242 1072.34 714.223L1071.84 714.466ZM1070.96 723.06L1071.04 723.773C1071.25 725.592 1071.33 727.377 1071.24 729.045C1070.94 734.679 1069.17 737.136 1064.87 736.919L1064.66 736.915L1064.45 736.921C1059.3 737.221 1055.99 734.843 1053.76 730.314L1053.47 729.701C1053.1 728.874 1052.78 728.014 1052.51 727.139L1052.42 726.836L1053.4 726.755C1058.43 726.301 1063.11 725.406 1067.4 724.185C1068.4 723.899 1069.35 723.604 1070.25 723.303L1070.96 723.06Z" fill="#061178"/>
<path fill-rule="evenodd" clip-rule="evenodd" d="M1076.96 1036.24L1214.86 1054.4L1245.69 1117.05H1433.23C1433.23 1117.05 1271.15 980.752 1220.36 965.919V965.919C1163.31 944.31 1106.12 964.897 1096.27 976.532C1085.4 989.446 1050.48 1022.56 1032.06 1025.25C1013.63 1027.93 991.887 1021.92 992.271 1033.05C992.399 1038.16 990.096 1054.53 1017.6 1052.36C1037.94 1050.82 1058.79 1049.03 1076.96 1036.24" fill="white"/>
<path fill-rule="evenodd" clip-rule="evenodd" d="M1139.96 954.979C1166.4 950.428 1194.42 952.253 1220.55 961.895L1221.59 962.282L1222.02 962.411C1240.74 968.104 1273.73 988.831 1317.48 1020.95L1321.56 1023.96C1327.57 1028.4 1333.73 1033.01 1340.01 1037.78C1360.72 1053.5 1382.01 1070.27 1402.81 1087.1L1406.71 1090.26C1412.71 1095.13 1418.33 1099.73 1423.49 1103.99L1430.33 1109.64L1435.7 1114.12C1438.38 1116.38 1436.87 1120.71 1433.45 1120.89L1433.23 1120.89H1245.69C1244.31 1120.89 1243.05 1120.15 1242.37 1118.97L1242.25 1118.75L1212.32 1057.94L1077.92 1040.24L1077.54 1040.49C1069.36 1045.94 1060.33 1049.61 1049.97 1052.03L1048.93 1052.26L1047.9 1052.49C1039.82 1054.23 1032.41 1055.07 1018.78 1056.11L1017.9 1056.18C1001.44 1057.48 992.353 1052.61 989.445 1043.18C988.63 1040.54 988.425 1038.36 988.431 1034.97L988.437 1033.26L988.435 1033.18C988.244 1027.62 991.671 1024.25 997.417 1022.95L998.138 1022.8C1001.02 1022.22 1003.96 1022.07 1010.03 1022.12L1017.06 1022.19C1020.18 1022.22 1022.22 1022.19 1024.55 1022.08C1027.07 1021.97 1029.37 1021.76 1031.5 1021.45C1038.92 1020.37 1050.8 1013.12 1064.55 1001.77L1065.97 1000.59C1076.59 991.682 1087.5 980.994 1093.34 974.054C1099.62 966.637 1118.44 958.684 1139.96 954.979ZM1219 969.507C1193.89 959.997 1166.81 958.142 1141.27 962.54C1121.35 965.967 1104.05 973.279 1099.21 979.002L1098.36 979.995C1091.93 987.432 1080.86 998.182 1070.17 1007.08L1069.44 1007.68C1054.64 1019.9 1041.87 1027.69 1032.61 1029.04C1030.5 1029.35 1028.29 1029.56 1025.92 1029.69L1024.89 1029.75C1022.55 1029.85 1020.5 1029.89 1017.54 1029.87L1010.13 1029.79C1004.28 1029.75 1001.64 1029.88 999.3 1030.39L999.11 1030.43C996.713 1030.98 996.104 1031.5 996.104 1032.79L996.113 1033.32L996.109 1034.42C996.084 1037.43 996.215 1039.1 996.779 1040.92C998.492 1046.47 1003.97 1049.48 1016.72 1048.58L1018.98 1048.4C1032.33 1047.37 1039.38 1046.53 1047.26 1044.78C1057.47 1042.5 1066.18 1038.97 1073.97 1033.65L1074.79 1033.08L1074.95 1032.98L1075.16 1032.86L1075.37 1032.75L1075.59 1032.66L1075.81 1032.58L1076.03 1032.52L1076.15 1032.49L1076.48 1032.44L1076.71 1032.42L1076.94 1032.41L1077.23 1032.42L1077.46 1032.44L1215.36 1050.6C1216.55 1050.75 1217.59 1051.46 1218.18 1052.48L1218.3 1052.71L1248.08 1113.22H1422.62L1415.24 1107.13C1411.8 1104.31 1408.19 1101.35 1404.41 1098.28L1401.87 1096.21C1379.89 1078.37 1357.3 1060.54 1335.37 1043.89C1329.11 1039.14 1322.98 1034.54 1317 1030.12L1314.28 1028.12C1270.65 996.021 1237.57 975.171 1219.83 969.764L1219.28 969.602C1219.19 969.574 1219.09 969.542 1219 969.507Z" fill="#061178"/>
<path fill-rule="evenodd" clip-rule="evenodd" d="M1103.44 993.026C1103.44 993.026 1071.97 1024.86 1072.86 1035.35C1073.76 1045.83 1088.09 1067.57 1098.83 1067.57C1109.58 1067.57 1125.7 1066.8 1125.7 1066.8" fill="white"/>
<path fill-rule="evenodd" clip-rule="evenodd" d="M1106.13 990.298C1107.58 991.727 1107.65 994.022 1106.34 995.537L1106.07 995.816L1104.89 997.039L1103.97 997.991C1103.19 998.812 1102.35 999.701 1101.46 1000.65C1097.92 1004.44 1094.38 1008.41 1091.08 1012.33C1089.67 1014.02 1088.33 1015.66 1087.07 1017.24L1086.33 1018.19C1080.06 1026.27 1076.48 1032.62 1076.69 1035.02C1077.55 1045.19 1091.4 1063.74 1098.83 1063.74L1100.96 1063.73C1102.93 1063.71 1105.11 1063.67 1107.47 1063.62L1110.28 1063.54C1111.23 1063.52 1112.2 1063.49 1113.18 1063.46L1118.47 1063.27C1119.6 1063.23 1120.71 1063.18 1121.79 1063.14L1125.51 1062.97C1127.63 1062.87 1129.43 1064.51 1129.53 1066.62C1129.63 1068.74 1127.99 1070.53 1125.88 1070.64L1123.17 1070.76C1121.07 1070.85 1118.79 1070.94 1116.43 1071.02L1111.95 1071.17C1110.97 1071.2 1110.01 1071.23 1109.06 1071.25L1105.89 1071.33C1103.29 1071.38 1100.92 1071.41 1098.83 1071.41C1086.67 1071.41 1070.21 1049.36 1069.04 1035.68C1068.6 1030.5 1072.67 1023.28 1080.27 1013.49C1081.8 1011.52 1083.45 1009.49 1085.2 1007.4C1088.59 1003.36 1092.22 999.302 1095.85 995.416L1096.92 994.28C1097.44 993.727 1097.94 993.197 1098.42 992.692L1100.12 990.925L1100.71 990.33C1102.2 988.823 1104.63 988.809 1106.13 990.298Z" fill="#061178"/>
<path fill-rule="evenodd" clip-rule="evenodd" d="M1128.89 1001.72C1128.89 1001.72 1104.72 1027.29 1105.1 1036.63C1105.36 1045.96 1117.38 1066.42 1129.66 1069.49C1141.94 1072.56 1161.51 1066.29 1161.51 1066.29" fill="white"/>
<path fill-rule="evenodd" clip-rule="evenodd" d="M1131.53 998.934C1133.07 1000.39 1133.14 1002.82 1131.68 1004.36L1130.69 1005.42L1129.43 1006.81C1128.99 1007.3 1128.52 1007.81 1128.04 1008.35C1125.3 1011.44 1122.55 1014.67 1120 1017.88C1118.57 1019.69 1117.23 1021.43 1116.02 1023.11L1115.38 1024C1111.2 1029.88 1108.85 1034.5 1108.94 1036.52C1109.19 1045.77 1121.32 1063.45 1130.59 1065.77C1133.27 1066.44 1136.63 1066.64 1140.51 1066.41C1144.42 1066.18 1148.66 1065.52 1152.95 1064.57C1154.88 1064.14 1156.7 1063.69 1158.33 1063.23L1159.29 1062.96L1160.29 1062.66C1160.31 1062.65 1160.33 1062.64 1160.34 1062.64C1162.36 1061.99 1164.52 1063.11 1165.17 1065.12C1165.82 1067.14 1164.7 1069.3 1162.68 1069.95L1161.78 1070.22C1161.47 1070.32 1161.11 1070.42 1160.71 1070.53L1160.39 1070.62C1158.63 1071.11 1156.68 1071.6 1154.61 1072.06C1149.95 1073.09 1145.33 1073.81 1140.96 1074.07C1136.37 1074.34 1132.26 1074.09 1128.73 1073.21C1115.87 1070 1101.6 1049.21 1101.26 1036.79C1101.08 1032.31 1104.17 1026.38 1109.8 1018.6C1111.09 1016.83 1112.49 1015 1113.99 1013.11C1116.64 1009.78 1119.47 1006.44 1122.31 1003.25L1123.27 1002.17C1123.74 1001.65 1124.2 1001.15 1124.62 1000.68L1126.1 999.087C1127.56 997.547 1129.99 997.479 1131.53 998.934Z" fill="#061178"/>
<path fill-rule="evenodd" clip-rule="evenodd" d="M1154.74 1012.46C1154.74 1012.46 1130.05 1035.99 1142.71 1049.03C1159.72 1064.25 1172.77 1067.44 1180.7 1067.44C1189.4 1067.44 1204.88 1052.36 1204.88 1052.36" fill="white"/>
<path fill-rule="evenodd" clip-rule="evenodd" d="M1152.09 1009.69C1153.62 1008.22 1156.05 1008.28 1157.51 1009.82C1158.98 1011.35 1158.92 1013.78 1157.38 1015.24L1157.16 1015.45L1156.79 1015.82L1156.16 1016.47C1155.83 1016.82 1155.48 1017.19 1155.12 1017.58C1153.37 1019.48 1151.63 1021.57 1150.01 1023.77C1146.84 1028.07 1144.56 1032.25 1143.53 1035.99C1142.37 1040.21 1142.87 1043.5 1145.21 1046.09L1145.38 1046.27L1145.91 1046.74C1159.29 1058.54 1170.81 1063.45 1180.26 1063.6L1180.7 1063.61C1182.3 1063.61 1184.86 1062.64 1187.95 1060.8C1189.77 1059.72 1191.71 1058.38 1193.73 1056.85C1195.81 1055.26 1197.86 1053.56 1199.77 1051.85L1200.54 1051.16C1200.79 1050.93 1201.03 1050.72 1201.25 1050.51L1202.2 1049.61C1203.72 1048.13 1206.15 1048.16 1207.63 1049.68C1209.11 1051.19 1209.08 1053.62 1207.56 1055.1L1206.82 1055.8L1206.1 1056.47C1205.72 1056.82 1205.31 1057.19 1204.88 1057.58C1202.83 1059.41 1200.63 1061.24 1198.38 1062.95C1196.14 1064.65 1193.96 1066.15 1191.87 1067.39C1187.69 1069.88 1184 1071.28 1180.7 1071.28C1169.2 1071.28 1155.78 1065.67 1140.84 1052.5L1140.15 1051.89L1139.96 1051.7C1135.31 1046.92 1134.26 1040.75 1136.13 1033.96C1137.45 1029.16 1140.15 1024.21 1143.83 1019.22C1145.62 1016.78 1147.54 1014.48 1149.47 1012.39L1150.23 1011.57C1151.03 1010.73 1151.67 1010.09 1152.09 1009.69Z" fill="#061178"/>
<path fill-rule="evenodd" clip-rule="evenodd" d="M1165.12 1033.14C1165.7 1031.1 1167.83 1029.93 1169.87 1030.51C1171.69 1031.03 1172.82 1032.78 1172.62 1034.6L1172.6 1034.77L1172.61 1034.78L1172.63 1034.84C1172.77 1035.27 1173.11 1035.84 1173.77 1036.55C1176.08 1039.05 1180.85 1041.75 1188.7 1044.38C1195.61 1046.69 1204.52 1048.79 1215.61 1050.62C1217.7 1050.96 1219.12 1052.94 1218.77 1055.03C1218.43 1057.12 1216.45 1058.53 1214.36 1058.19L1212.1 1057.8C1201.66 1056 1193.11 1053.94 1186.27 1051.65C1170.08 1046.24 1164.09 1039.77 1164.99 1033.76C1165.02 1033.53 1165.07 1033.32 1165.12 1033.14Z" fill="#061178"/>
<path fill-rule="evenodd" clip-rule="evenodd" d="M862.043 1025.25C822.898 919.505 728.874 930.118 728.874 930.118V876.031H588.54V930.118C588.54 930.118 494.516 919.505 455.371 1025.12C455.371 1025.12 369.278 1008.5 327.702 1115.9H989.84C948.136 1008.5 862.043 1025.25 862.043 1025.25Z" fill="white"/>
<path fill-rule="evenodd" clip-rule="evenodd" d="M588.54 592.195L588.314 592.202C586.3 592.318 584.702 593.988 584.702 596.031L584.701 926.035L584.619 926.032C577.395 925.777 568.538 926.292 558.608 928.07C542.418 930.967 526.462 936.755 511.524 946.107L510.719 946.615C486.103 962.277 466.309 986.449 453.048 1020.43L452.868 1020.89L452.384 1020.84C444.167 1019.97 434.278 1020.14 423.355 1022.07C407.846 1024.8 392.626 1030.74 378.376 1040.58C355.883 1056.12 337.357 1080.33 324.123 1114.52C323.15 1117.03 325.005 1119.74 327.702 1119.74H989.839C992.538 1119.74 994.393 1117.03 993.417 1114.52C980.165 1080.39 961.649 1056.21 939.185 1040.69C924.92 1030.84 909.684 1024.9 894.159 1022.17C883.218 1020.24 873.306 1020.08 865.065 1020.96L864.544 1021.02L864.366 1020.56C850.961 986.165 830.881 961.808 805.892 946.141C790.951 936.774 774.992 930.977 758.8 928.075L757.74 927.889C748.591 926.319 740.385 925.823 733.57 926.008L732.71 926.035L732.711 596.031C732.711 593.913 730.993 592.195 728.873 592.195H588.54Z" fill="#061178"/>
<path fill-rule="evenodd" clip-rule="evenodd" d="M592.377 631.867H725.034L725.036 930.118C725.036 932.331 726.898 934.067 729.078 933.948L730.232 933.849C730.452 933.833 730.705 933.816 730.989 933.798C738.016 933.374 747.092 933.77 757.445 935.626C772.717 938.364 787.754 943.826 801.813 952.64C826.167 967.908 845.639 991.989 858.444 1026.58C859.069 1028.27 860.78 1029.29 862.546 1029.05L863.508 1028.89L864.219 1028.79C864.72 1028.72 865.275 1028.65 865.882 1028.59C873.446 1027.78 882.645 1027.93 892.828 1029.73C907.306 1032.27 921.507 1037.81 934.821 1047L935.549 1047.51C954.924 1061.12 971.245 1081.77 983.539 1110.6L984.156 1112.07H333.378L333.518 1111.73C346.005 1081.89 362.764 1060.69 382.739 1046.89C396.04 1037.71 410.226 1032.18 424.69 1029.62C434.856 1027.83 444.034 1027.67 451.574 1028.47C452.324 1028.55 452.994 1028.63 453.579 1028.72L454.495 1028.86L454.643 1028.89C456.486 1029.24 458.317 1028.21 458.969 1026.45C471.774 991.906 491.245 967.856 515.598 952.609C529.656 943.808 544.691 938.354 559.961 935.622C569.98 933.828 578.805 933.4 585.734 933.76L586.948 933.832C587.514 933.871 587.904 933.906 588.109 933.93L588.336 933.948C590.516 934.067 592.378 932.331 592.378 930.118L592.377 631.867Z" fill="white"/>
<path fill-rule="evenodd" clip-rule="evenodd" d="M808.57 1047.75C779.147 968.349 708.405 976.276 708.405 976.276V859.92H602.995V976.276C602.995 976.276 532.253 968.221 502.83 1047.75C502.83 1047.75 438.1 1035.22 406.887 1116.03H904.641C873.3 1035.22 808.57 1047.75 808.57 1047.75Z" fill="white"/>
<path fill-rule="evenodd" clip-rule="evenodd" d="M602.996 624.084L602.77 624.091C600.756 624.208 599.158 625.878 599.158 627.92V972.224L599.113 972.222C593.79 972.1 587.399 972.517 580.29 973.787C568.011 975.979 555.908 980.365 544.576 987.456L543.843 987.919C525.578 999.572 510.826 1017.41 500.81 1042.33L500.325 1043.55L500.679 1043.59C494.421 1042.92 486.903 1043.05 478.605 1044.51C466.829 1046.59 455.271 1051.09 444.452 1058.56C427.369 1070.35 413.318 1088.73 403.307 1114.65C402.336 1117.16 404.192 1119.87 406.887 1119.87H904.642C907.339 1119.87 909.195 1117.16 908.22 1114.65C898.192 1088.79 884.151 1070.43 867.098 1058.64C856.25 1051.13 844.66 1046.61 832.851 1044.52L831.895 1044.36C824.271 1043.09 817.331 1042.96 811.451 1043.51L811.074 1043.55L811.005 1043.38C800.851 1017.61 785.683 999.316 766.826 987.513C755.476 980.408 743.355 976.012 731.059 973.809L730.136 973.648C723.395 972.499 717.331 972.118 712.243 972.229V627.92C712.243 625.802 710.525 624.084 708.405 624.084H602.996Z" fill="#061178"/>
<path fill-rule="evenodd" clip-rule="evenodd" d="M606.834 591.757H704.568V976.277C704.568 978.565 706.559 980.344 708.833 980.089L709.272 980.049C709.474 980.033 709.731 980.015 710.041 979.997C715.249 979.684 721.998 979.98 729.705 981.361C741.082 983.399 752.283 987.462 762.752 994.015C780.902 1005.38 795.416 1023.3 804.972 1049.09C805.597 1050.77 807.305 1051.79 809.07 1051.56L809.807 1051.44L810.433 1051.35C810.768 1051.3 811.136 1051.26 811.534 1051.22C817.129 1050.62 823.954 1050.74 831.516 1052.08C842.277 1053.98 852.832 1058.1 862.73 1064.94L863.413 1065.42C877.502 1075.38 889.426 1090.37 898.508 1111.2L898.936 1112.2H412.584L413.02 1111.19C422.235 1089.97 434.406 1074.82 448.815 1064.87C458.684 1058.06 469.207 1053.96 479.937 1052.07C487.479 1050.74 494.285 1050.62 499.867 1051.22L500.622 1051.3C500.741 1051.32 500.856 1051.33 500.968 1051.35L501.746 1051.46L502.101 1051.52C503.946 1051.88 505.779 1050.85 506.43 1049.08C515.986 1023.25 530.5 1005.32 548.649 993.959C559.1 987.419 570.282 983.368 581.64 981.34C589.048 980.017 595.578 979.697 600.714 979.958L601.945 980.034L602.788 980.108C604.969 980.229 606.834 978.492 606.834 976.277V591.757Z" fill="white"/>
<path fill-rule="evenodd" clip-rule="evenodd" d="M761.494 1067.32C740.77 1011.44 691.135 1017.07 691.135 1017.07V631.086H617.067V1017.07C617.067 1017.07 567.304 1011.44 546.708 1067.32C546.708 1067.32 501.167 1058.49 479.292 1115.27H829.166C807.035 1058.49 761.494 1067.32 761.494 1067.32Z" fill="white"/>
<path fill-rule="evenodd" clip-rule="evenodd" d="M617.067 618.223L616.842 618.229C614.827 618.346 613.23 620.016 613.23 622.059V1013.06L612.664 1013.07C609.232 1013.09 605.275 1013.42 600.947 1014.19C592.192 1015.76 583.56 1018.88 575.473 1023.93L574.797 1024.35C561.996 1032.55 551.634 1045 544.55 1062.28L544.199 1063.15L544.066 1063.13C532.172 1062.14 518.335 1064.79 505.093 1073.9C492.859 1082.31 482.823 1095.43 475.711 1113.89C474.743 1116.4 476.599 1119.1 479.293 1119.1H829.166C831.867 1119.1 833.722 1116.39 832.742 1113.87C825.595 1095.54 815.583 1082.48 803.412 1074.06L802.721 1073.58C789.811 1064.88 776.382 1062.24 764.747 1063.09L763.998 1063.15L763.647 1062.29C756.429 1044.77 745.863 1032.21 732.818 1024.02C724.713 1018.93 716.06 1015.78 707.284 1014.2L706.475 1014.06C702.453 1013.39 698.766 1013.09 695.542 1013.07L694.973 1013.06V622.059C694.973 619.94 693.255 618.223 691.136 618.223H617.067ZM620.906 616.867H687.298V1017.07C687.298 1019.28 689.162 1021.02 691.342 1020.9L691.911 1020.85C692.036 1020.84 692.188 1020.83 692.368 1020.82C695.949 1020.6 700.606 1020.8 705.928 1021.76C713.782 1023.17 721.512 1025.98 728.735 1030.51C741.242 1038.37 751.263 1050.76 757.896 1068.65C758.522 1070.34 760.23 1071.35 761.995 1071.12L762.68 1071.01C762.939 1070.97 763.283 1070.93 763.706 1070.88C774.281 1069.76 786.941 1071.99 799.044 1080.37L799.625 1080.77C808.886 1087.35 816.806 1097.09 822.984 1110.51L823.402 1111.43H485.033L485.071 1111.34C491.41 1097.1 499.691 1086.93 509.445 1080.22C521.231 1072.11 533.554 1069.85 543.934 1070.83L544.967 1070.94C545.182 1070.96 545.368 1070.99 545.524 1071.01L545.979 1071.08C547.826 1071.44 549.66 1070.41 550.31 1068.64C556.925 1050.7 566.973 1038.28 579.54 1030.43C586.746 1025.93 594.459 1023.14 602.296 1021.75C607.354 1020.84 611.812 1020.62 615.315 1020.79L616.158 1020.84L616.863 1020.9C619.043 1021.02 620.906 1019.28 620.906 1017.07V616.867Z" fill="#061178"/>
<path fill-rule="evenodd" clip-rule="evenodd" d="M570.737 692.079L587.869 758.846C588.812 762.302 593.684 762.145 594.47 758.689L609.716 726.169C609.716 726.169 629.677 797.492 658.125 799.377C686.573 801.262 714.393 725.07 714.393 725.07L727.281 759.788C728.381 763.087 733.253 762.773 733.882 759.317L751.328 693.493C751.328 693.493 766.574 582.11 656.396 590.593C546.218 599.077 570.737 692.079 570.737 692.079Z" fill="#ADC6FF"/>
<path fill-rule="evenodd" clip-rule="evenodd" d="M524.371 389.664C524.371 389.664 440.127 503.718 450.972 605.675H636.907V387.151L524.371 389.664Z" fill="#ADC6FF"/>
<path fill-rule="evenodd" clip-rule="evenodd" d="M789.207 389.664C789.207 389.664 873.452 503.718 862.607 605.675H676.672V387.151L789.207 389.664Z" fill="#ADC6FF"/>
<path fill-rule="evenodd" clip-rule="evenodd" d="M732.624 605.675C803.981 477.483 796.279 375.526 775.375 305.931C754.471 236.337 705.591 158.416 659.068 158.416C612.545 158.416 563.664 236.18 542.76 305.931C521.856 375.683 513.054 477.326 584.411 605.675L564.45 648.563H752.585L732.624 605.675V605.675Z" fill="white"/>
<path fill-rule="evenodd" clip-rule="evenodd" d="M659.068 153.703C635.304 153.703 610.524 171.837 587.504 203.231C567.029 231.153 549.128 268.261 538.244 304.579C525.832 345.992 520.55 388.536 524.289 434.213L524.434 435.934C529.112 489.883 546.355 545.872 578.235 604.236L579.124 605.857L560.175 646.575C558.721 649.699 561.003 653.276 564.45 653.276H752.586L752.855 653.268C756.15 653.088 758.277 649.617 756.861 646.575L737.91 605.859L738.823 604.2C771.067 545.243 788.548 488.647 793.295 434.239C797.301 388.33 792.196 345.542 779.892 304.576C769 268.315 751.094 231.215 730.633 203.291L729.249 201.421C706.611 171.141 682.352 153.703 659.068 153.703ZM659.068 163.13C698.637 163.13 747.65 230.019 770.859 307.287C782.834 347.155 787.797 388.757 783.9 433.42C779.169 487.645 761.441 544.213 728.504 603.384L728.357 603.671C727.765 604.93 727.758 606.392 728.349 607.664L745.189 643.849H571.845L588.686 607.664C589.323 606.295 589.266 604.705 588.532 603.386C555.635 544.213 538.129 487.714 533.687 433.446C530.05 389.003 535.188 347.624 547.277 307.284C570.447 229.972 619.46 163.13 659.068 163.13Z" fill="#061178"/>
<path fill-rule="evenodd" clip-rule="evenodd" d="M659.068 422.027C688.407 422.027 712.192 393.752 712.192 358.873C712.192 323.995 688.407 295.72 659.068 295.72C629.728 295.72 605.943 323.995 605.943 358.873C605.943 393.752 629.728 422.027 659.068 422.027Z" fill="#ADC6FF"/>
<path fill-rule="evenodd" clip-rule="evenodd" d="M659.068 450.619C663.929 450.619 667.87 445.906 667.87 440.093C667.87 434.28 663.929 429.567 659.068 429.567C654.207 429.567 650.267 434.28 650.267 440.093C650.267 445.906 654.207 450.619 659.068 450.619Z" fill="#ADC6FF"/>
<path fill-rule="evenodd" clip-rule="evenodd" d="M693.175 450.619C698.036 450.619 701.976 445.906 701.976 440.093C701.976 434.28 698.036 429.567 693.175 429.567C688.314 429.567 684.373 434.28 684.373 440.093C684.373 445.906 688.314 450.619 693.175 450.619Z" fill="#ADC6FF"/>
<path fill-rule="evenodd" clip-rule="evenodd" d="M622.29 450.619C627.151 450.619 631.092 445.906 631.092 440.093C631.092 434.28 627.151 429.567 622.29 429.567C617.429 429.567 613.488 434.28 613.488 440.093C613.488 445.906 617.429 450.619 622.29 450.619Z" fill="#ADC6FF"/>
<path fill-rule="evenodd" clip-rule="evenodd" d="M659.068 400.505C681.203 400.505 699.147 379.123 699.147 352.747C699.147 326.371 681.203 304.989 659.068 304.989C636.933 304.989 618.989 326.371 618.989 352.747C618.989 379.123 636.933 400.505 659.068 400.505Z" fill="white"/>
<path fill-rule="evenodd" clip-rule="evenodd" d="M668.498 153.389V78.61C668.498 78.4529 668.498 78.1387 668.498 77.9816C669.913 76.0964 670.699 73.7399 670.699 71.2264C670.699 64.7853 665.512 59.6011 659.068 59.6011C652.624 59.6011 647.437 64.7853 647.437 71.2264C647.437 73.7399 648.223 76.0964 649.638 77.9816C649.638 78.1387 649.638 78.4529 649.638 78.61V153.232C630.148 157.159 610.659 173.497 592.741 195.491C612.859 190.778 636.278 188.265 663.312 189.836C687.516 191.249 708.892 194.549 727.752 199.104C709.52 175.54 688.931 157.788 668.498 153.389Z" fill="#ADC6FF"/>
<path fill-rule="evenodd" clip-rule="evenodd" d="M743.887 241.05C721.205 233.195 695.152 226.44 660.056 225.026C624.347 223.612 597.067 231.781 574.845 240.736C565.036 259.273 557.373 277.654 551.09 297.291C577.91 283.938 610.554 269.799 660.822 270.742C708.638 271.684 741.435 282.367 766.416 293.835C760.286 275.454 752.93 258.488 743.887 241.05Z" fill="#85A5FF"/>
<path fill-rule="evenodd" clip-rule="evenodd" d="M727.006 605.204C730.336 599.077 733.364 593.107 736.239 587.137C720.649 580.539 698.399 575.198 658.742 575.512C618.631 575.198 596.229 580.696 580.639 587.452C583.515 593.421 586.542 599.391 589.872 605.361C589.872 605.361 625.139 598.291 658.742 598.606C691.739 598.134 727.006 605.204 727.006 605.204Z" fill="#85A5FF"/>
<rect x="912.19" y="1054.4" width="148.265" height="32.9889" fill="#ADC6FF"/>
<path fill-rule="evenodd" clip-rule="evenodd" d="M1030.52 1049.29C1033.26 1049.29 1035.5 1051.44 1035.63 1054.15L1035.64 1054.4V1087.39C1035.64 1090.22 1033.35 1092.51 1030.52 1092.51C1027.78 1092.51 1025.54 1090.35 1025.41 1087.65L1025.4 1087.39V1054.4C1025.4 1051.58 1027.69 1049.29 1030.52 1049.29Z" fill="#061178"/>
<path fill-rule="evenodd" clip-rule="evenodd" d="M824.05 1075.5V1092.25H751.005C748.83 1088.41 744.737 1085.73 740.003 1085.73C733.095 1085.73 727.467 1091.35 727.467 1098.26C727.467 1105.16 733.095 1110.79 740.003 1110.79C744.737 1110.79 748.83 1108.1 751.005 1104.27H824.05V1115.01H1143.35V1075.37H824.05V1075.5Z" fill="#061178"/>
<path fill-rule="evenodd" clip-rule="evenodd" d="M1086.42 1070.38C1089.16 1070.38 1091.4 1072.54 1091.53 1075.24L1091.54 1075.5V1115.14C1091.54 1117.96 1089.25 1120.25 1086.42 1120.25C1083.68 1120.25 1081.45 1118.1 1081.31 1115.39L1081.31 1115.14V1075.5C1081.31 1072.67 1083.6 1070.38 1086.42 1070.38Z" fill="#061178"/>
<path fill-rule="evenodd" clip-rule="evenodd" d="M1534.61 1113.56C1536.48 1113.56 1538 1115.08 1538 1116.95C1538 1118.75 1536.59 1120.23 1534.81 1120.33L1534.61 1120.34H65.3869C63.5164 1120.34 62 1118.82 62 1116.95C62 1115.15 63.41 1113.67 65.1879 1113.57L65.3869 1113.56H1534.61Z" fill="#061178"/>
</svg>
